<svg viewBox="0 0 42.08 54" xmlns="http://www.w3.org/2000/svg"><path d="m42 5c0 51.32.14 43.78-.15 42.8a5 5 0 0 0 -4.85-3.8h-37v-44h37a5 5 0 0 1 5 5z" fill="#8a38bd"/><path d="m0 41c-.1 0 0 1.26 0-41h33v8a33 33 0 0 1 -33 33z" fill="#674089"/><path d="m36.8 54h-36.8c1.12-1.12 1-3.21 1-5 0-2.08.07-3.93-1-5 40.22 0 37.8-.24 39.38.6 4.62 2.49 2.73 9.4-2.58 9.4z" fill="#dbd7bd"/><path d="m34.8 52h-33.88a33.41 33.41 0 0 0 .08-4c0-1.91-.13-3.14-1-4 40.22 0 37.8-.24 39.38.6 1.87 3.13-.54 7.4-4.58 7.4z" fill="#e7e4cd"/><path d="m27 25.73 3.77-3.73-3.77-3.73v-5.27h-5.23l-3.77-3.73-3.69 3.73h-5.31v5.27l-3.69 3.73 3.69 3.73v5.27h5.27l3.73 3.73 3.77-3.73h5.23z" fill="#e5a430"/><path d="m12 21.42a6.44 6.44 0 0 1 6.46-6.42 1 1 0 0 1 0 2 4.42 4.42 0 1 0 3.22 7.46 1 1 0 0 1 1.45 1.37 6.43 6.43 0 0 1 -11.13-4.41z" fill="#f6d445"/><path d="m20 22a1 1 0 0 0 -1-1 1 1 0 0 1 0-2 1 1 0 0 0 1-1 1 1 0 0 1 2 0 1 1 0 0 0 1 1 1 1 0 0 1 0 2 1 1 0 0 0 -1 1 1 1 0 0 1 -2 0z" fill="#f6d445"/><path d="m26 51 3-2 3 2v-7h-6z" fill="#ab5034"/><path d="m37 0v37a1 1 0 0 1 -2 0v-37z" fill="#674089"/><path d="m21 50h-20v-2h20a1 1 0 0 1 0 2z" fill="#dbd7bd"/></svg>