<svg viewBox="0 0 64 64" xmlns="http://www.w3.org/2000/svg"><path d="m32 8v9l-24 5v-7z" fill="#5b5751"/><path d="m56 15v7l-24-5v-9z" fill="#47423f"/><path d="m32 17v7l-24 4v-6z" fill="#f6d445"/><path d="m56 22v6l-24-4v-7z" fill="#e5a430"/><path d="m32 24v32l-24-5v-23z" fill="#5b5751"/><path d="m56 28v23l-24 5v-32z" fill="#47423f"/><g fill="#f6d445"><path d="m10.08 33.83-2 .17c-.08 0-.08.29-.08-2l1.91-.15a1 1 0 0 1 .17 1.98z"/><path d="m13.29 32.56a1 1 0 0 1 2-.17 1 1 0 0 1 -2 .17z"/><path d="m21.35 30.88c-3.08.26-3.19.17-3.54.59a1 1 0 0 0 .76 1.65c.12 0 0 0 2.94-.24a1 1 0 0 0 -.16-2zm4.29-.35a1 1 0 1 0 .16 2 1 1 0 0 0 -.16-2z"/><path d="m32 30v2l-1.91.15a1 1 0 0 1 -.17-2c2.31-.15 1.97-.15 2.08-.15z"/></g><g fill="#e5a430"><path d="m56 32c0 2.23 0 2-.08 2l-2-.17a1 1 0 0 1 .17-2z"/><path d="m48.72 32.39a1 1 0 0 1 2 .17 1 1 0 0 1 -2-.17z"/><path d="m46.19 31.47c-.35-.42-.52-.34-3.54-.59a1 1 0 0 0 -.84 1.65c.34.4.4.33 3.54.59a1 1 0 0 0 .84-1.65zm-7.19-.59a1 1 0 1 0 -.84 1.64 1 1 0 0 0 .84-1.64z"/><path d="m35 31.25a1 1 0 0 1 -1.08.91l-1.92-.16v-2c.12 0-.11 0 2.08.17a1 1 0 0 1 .92 1.08z"/></g></svg>