<svg viewBox="0 0 42 54.07" xmlns="http://www.w3.org/2000/svg"><path d="m42 21.07c0 20-21 33-21 33a55.29 55.29 0 0 1 -10.91-9.46c-5.09-5.72-10.09-13.8-10.09-23.54a21 21 0 0 1 42 0z" fill="#674089"/><path d="m22.9 44.62a9.5 9.5 0 0 1 -12.81 0c-25.55-28.62 3.49-55.08 23.34-40.48 9.06 12.32 2.01 29.26-10.53 40.48z" fill="#8a38bd"/><path d="m30 25.8 3.73-3.73-3.73-3.73v-5.27h-5.27l-3.73-3.73-3.73 3.73h-5.27v5.27l-3.73 3.73 3.73 3.73v5.27h5.27l3.73 3.73 3.73-3.73h5.27z" fill="#e5a430"/><g fill="#f6d445"><path d="m15 21.49a6.44 6.44 0 0 1 6.42-6.42 1 1 0 0 1 0 2 4.42 4.42 0 1 0 3.22 7.46 1 1 0 0 1 1.45 1.37 6.43 6.43 0 0 1 -11.09-4.41z"/><path d="m23 22.07a1 1 0 0 0 -1-1 1 1 0 0 1 0-2 1 1 0 0 0 1-1 1 1 0 0 1 2 0 1 1 0 0 0 1 1 1 1 0 0 1 0 2 1 1 0 0 0 -1 1 1 1 0 0 1 -2 0z"/></g></svg>