<svg viewBox="0 0 48 48" xmlns="http://www.w3.org/2000/svg"><path d="m23 14v-3a1 1 0 0 1 2 0v3a1 1 0 0 1 -2 0z" fill="#553c75"/><path d="m0 43h48v5h-48z" fill="#553c75"/><path d="m5 38h38v5h-38z" fill="#5d3d7f"/><path d="m45 29.08c0 5.16-4.8 8.92-9 8.92h-3.45c5.84 0 9.36-11.88 3.24-16.35l-11.79-8.65 16.5 8.65a8.37 8.37 0 0 1 4.5 7.43z" fill="#66418c"/><path d="m32.55 38h-20.47c-6.2 0-11.59-7.1-7.88-13.27 1.63-2.68 2-2.43 19.74-11.73.1.1-1-.75 11.85 8.65 6.12 4.47 2.61 16.35-3.24 16.35z" fill="#8a38bd"/><path d="m29.54 8.3a6 6 0 0 1 -10.25 1.41 6 6 0 0 0 8.2-.71 4.65 4.65 0 0 0 2.05-.7z" fill="#e5a430"/><path d="m27.49 9a6 6 0 0 1 -8.2.74 6 6 0 0 1 4.71-9.74c-4.08 3.07-1.4 9.58 3.49 9z" fill="#f6d445"/></svg>