<svg viewBox="0 0 64 64" xmlns="http://www.w3.org/2000/svg"><path d="m5 37.5a12.5 12.5 0 0 0 25 0v-15a2.5 2.5 0 1 0 -5 0v-4a2.5 2.5 0 1 0 -5 0v-3a2.51 2.51 0 0 0 -4.27-1.77c-.94.94-.73 2-.73 3.77a2.51 2.51 0 0 0 -4.27-1.77c-1 1-.73 1.12-.73 10.27 0-2.57-3-3.83-4.41-2.41-.81.79-.59.41-.59 13.91z" fill="#ecce93"/><g fill="#e1b872"><path d="m9 35c.57-12.7 1.38-13.95 2 0a1 1 0 0 1 -2 0z"/><path d="m14 30c.6-18.66 1.4-18.67 2 0a1 1 0 0 1 -2 0z"/><path d="m19 30c.58-16.81 1.39-17.85 2 0a1 1 0 0 1 -2 0z"/><path d="m24 32c.57-12.7 1.38-13.95 2 0a1 1 0 0 1 -2 0z"/><path d="m25.29 33.71c-3.24-3.24-6.54-2.71-11.29-2.71a1 1 0 0 1 0-2c4.92 0 8.87-.54 12.71 3.29a1 1 0 0 1 -1.42 1.42z"/><path d="m20 43a1 1 0 0 1 -1-1c0-3.31-4-6-9-6a1 1 0 0 1 0-2c10.2 0 12.76 9 10 9z"/></g><path d="m59 37.5a12.5 12.5 0 0 1 -25 0v-15a2.5 2.5 0 1 1 5 0v-4a2.5 2.5 0 1 1 5 0v-3a2.51 2.51 0 0 1 4.27-1.77c.94.94.73 2 .73 3.77a2.51 2.51 0 0 1 4.27-1.77c1 1 .73 1.12.73 10.27 0-2.57 3-3.83 4.41-2.41.81.79.59.41.59 13.91z" fill="#ecce93"/><g fill="#e1b872"><path d="m55 35c-.57-12.7-1.38-13.95-2 0a1 1 0 0 0 2 0z"/><path d="m50 30c-.6-18.66-1.4-18.67-2 0a1 1 0 0 0 2 0z"/><path d="m45 30c-.58-16.81-1.39-17.85-2 0a1 1 0 0 0 2 0z"/><path d="m40 32c-.57-12.7-1.38-13.95-2 0a1 1 0 0 0 2 0z"/><path d="m38.71 33.71c3.29-3.24 6.54-2.71 11.29-2.71a1 1 0 0 0 0-2c-4.92 0-8.87-.54-12.71 3.29a1 1 0 0 0 1.42 1.42z"/><path d="m44 43a1 1 0 0 0 1-1c0-3.31 4-6 9-6a1 1 0 0 0 0-2c-10.2 0-12.76 9-10 9z"/></g></svg>