<svg viewBox="2 0 48 42" xmlns="http://www.w3.org/2000/svg"><path d="m5 35.66v9.67a1.73 1.73 0 0 0 1.74 1.74c.43 0-.49.25 17.26-5.38" fill="#674089"/><path d="m43 35.66v9.67a1.73 1.73 0 0 1 -1.74 1.74c-.43 0 .5.25-17.25-5.38" fill="#674089"/><path d="m24 36.07-18-7v-5l13.34 5.19a7.32 7.32 0 0 1 4.66 6.81z" fill="#c1bdab"/><path d="m42 24.07v5l-18 7a7.32 7.32 0 0 1 4.66-6.81z" fill="#d5d2bd"/><path d="m24 6.07v30a7.32 7.32 0 0 0 -4.66-6.81l-13.34-5.19v-22.07a2 2 0 0 1 2-2 2.17 2.17 0 0 1 .71.13c13 5.06 11.72 4.55 15.29 5.94z" fill="#d5d2bd"/><path d="m42 2v22.07l-13.34 5.19a7.32 7.32 0 0 0 -4.66 6.81v-30l15.28-5.94a2 2 0 0 1 2.59 1.15 2.17 2.17 0 0 1 .13.72z" fill="#e7e4cd"/><path d="m21 4.9v19.17a1 1 0 0 1 -2 0v-19.94z" fill="#ab5034"/><path d="m48 5.8v26.81a2 2 0 0 1 -1.39 1.9l-22.61 7.18c-.1 0-22.72-7.21-22.62-7.18a2 2 0 0 1 -1.38-1.9v-26.81a2 2 0 0 1 2-2 2.1 2.1 0 0 1 .61.09l3.39 1.11v24.07l18 7 18-7v-24.07l3.39-1.1a2 2 0 0 1 2.51 1.3 1.8 1.8 0 0 1 .1.6z" fill="#8a38bd"/></svg>