<svg viewBox="0 0 47 49" xmlns="http://www.w3.org/2000/svg"><path d="m14 42-2 6h-4l1.32-4a3 3 0 0 1 2.84-2z" fill="#e1b872"/><path d="m35 48h-23c1.95-5.85 1.56-4.66 2-6h5a9 9 0 0 1 -9-9v-9.21a8.5 8.5 0 0 1 8.5-8.5h.57a8.63 8.63 0 0 1 7.84 7.54l-1.91 1.93-5.76-5.76a3 3 0 0 0 -4.39 4.09l.15.15 5.76 5.76a6 6 0 0 0 6.24 1.41v4.24l8.58.83c7.63.72 6.96 12.52-.58 12.52z" fill="#8a38bd"/><path d="m25 9.5a5.5 5.5 0 0 1 -11 0v-4a5.51 5.51 0 0 1 9.39-3.89c2.03 2.03 1.61 4.2 1.61 7.89z" fill="#e1b872"/><path d="m23.5 8a5.52 5.52 0 0 1 -5.5 5.5 5.58 5.58 0 0 1 -3.05-.93c-1.25-1.86-.95-3.37-.95-7.07a5.51 5.51 0 0 1 8.57-4.57c1.23 1.86.93 3.37.93 7.07z" fill="#ecce93"/><path d="m33 43h-19.33l.33-1h5a8.91 8.91 0 0 1 -4.11-1h18.11a1 1 0 0 1 0 2z" fill="#7a37aa"/><path d="m46 49h-45a1 1 0 0 1 0-2h45a1 1 0 0 1 0 2z" fill="#674089"/><path d="m36.12 22.12c-7.4 7.4-7.45 7.72-9.12 8.29a6 6 0 0 1 -6.24-1.41l-5.76-5.76a3 3 0 1 1 4.09-4.39l.15.15 5.76 5.76 6.88-6.88c.62.62.6.52.5.62 7.12 7.12 1.34 1.22 3.74 3.62z" fill="#9c5dc9"/><path d="m40.32 15.5c0 1.64-1 2.17-4.88 6.06l-3.06-3.06 5-5c1.16-1.18 2.94.09 2.94 2z" fill="#ecce93"/></svg>