<svg fill="none" height="230" viewBox="0 0 375 230" width="375" xmlns="http://www.w3.org/2000/svg" xmlns:xlink="http://www.w3.org/1999/xlink"><linearGradient id="a" gradientUnits="userSpaceOnUse" x1="187.872" x2="187.872" y1="-253.669" y2="291.946"><stop offset="0" stop-color="#662d84"/><stop offset="1" stop-color="#a5c5fd"/></linearGradient><clipPath id="b"><path d="m0 0h375v230h-375z"/></clipPath><g clip-path="url(#b)"><path d="m103.32 290h-81.12c-11.73 0-21.330005 9.342-21.330005 20.757v-127.872c.630005-.633 1.360005-1.314 2.150005-2.005 5.18-4.593 13-10.198 16.5-12.661-.27-.72-.41-1.508-.41-2.325 0-1.752.66-3.358 1.77-4.584.04-.039.07-.078.12-.126.05-.049.09-.098.15-.146.2-.195.45-.419.73-.643 1.24-1.041 3.08-2.335 4.13-3.055.01-.458.03-1.1.05-1.888-.85-.331-1.44-1.051-1.44-1.879 0-.866.63-1.615 1.54-1.926.01-.477.02-.974.04-1.48-.61-.272-1.03-.807-1.03-1.42 0-.643.45-1.197 1.11-1.45.21-6.842.52-14.559.81-15.435.3.876.6 8.593.82 15.435.66.253 1.11.807 1.11 1.45 0 .613-.42 1.148-1.03 1.42.02.506.03 1.003.04 1.48.91.311 1.54 1.06 1.54 1.926 0 .828-.59 1.548-1.44 1.879.02.778.04 1.42.05 1.888 1.05.72 2.89 2.014 4.13 3.055.07.059.14.107.2.166.14.117.26.224.37.321.17.156.32.302.43.428 1.1415 1.269 1.7705 2.897 1.77 4.584 0 .7-.1 1.372-.31 2.014 3.22 2.248 11.54 8.175 16.95 12.972 1.15 1.012 2.17 1.985 2.98 2.852.29.34.58.681.84 1.041-1.23-7.601-2.17-15.687-2.17-15.687l.13-.02c-.09-1.041-.13-2.082-.13-3.143 0-5.752 1.28-11.211 3.58-16.125 1.52-3.231 3.47-6.219 5.8-8.905 1.47-1.586 3.32-3.338 5.4-5.177 9.41-8.34 23.62-18.529 29.96-22.996-.4922-1.353-.7425-2.778-.74-4.213 0-3.182 1.21-6.102 3.21-8.321.07-.078.14-.155.23-.243.08-.0779.16-.1655.26-.2531.37-.36.82-.759 1.33-1.1775 2.25-1.8782 5.6-4.2332 7.5-5.547.02-.8271.05-1.9949.09-3.4254-1.55-.6034-2.62-1.9074-2.62-3.4158 0-1.5668 1.15-2.9195 2.8-3.4839.02-.8661.04-1.7712.07-2.6957-1.11-.4865-1.87-1.4597-1.87-2.5788 0-1.1678.83-2.1799 2.02-2.6373.39-12.4174.94-26.4308 1.48-28.0171.54 1.5863 1.09 15.5997 1.48 28.0171 1.19.4574 2.02 1.4695 2.02 2.6373 0 1.1191-.76 2.0923-1.87 2.5788.03.9245.05 1.8296.07 2.6957 1.65.5644 2.8 1.9171 2.8 3.4839 0 1.5084-1.07 2.8124-2.62 3.4158.04 1.4208.07 2.5885.09 3.4254 1.9 1.3138 5.25 3.6688 7.5 5.547.13.1071.25.2044.37.3114.24.2044.47.399.67.5839.31.2822.57.545.78.7783 2 2.219 3.21 5.139 3.21 8.321 0 1.265-.19 2.491-.56 3.649 5.85 4.087 20.94 14.841 30.78 23.56 2.08 1.839 3.93 3.591 5.4 5.177 2.33 2.686 4.28 5.674 5.8 8.905 2.3 4.914 3.58 10.373 3.58 16.125 0 6.15-1.47 11.979-4.09 17.157 1.68.875 2.98 1.197 3.85 1.313.24-1.352.66-2.656 1.23-3.873.63-1.343 1.44-2.588 2.41-3.698.61-.662 1.37-1.391 2.24-2.151 3.91-3.464 9.81-7.697 12.44-9.546-.206-.563-.31-1.155-.31-1.752 0-1.323.5-2.53 1.33-3.455.03-.029.06-.068.1-.097.03-.039.07-.078.11-.107.15-.156.34-.321.55-.496.93-.779 2.33-1.752 3.11-2.297.01-.35.03-.827.04-1.421-.64-.253-1.09-.798-1.09-1.42 0-.652.48-1.217 1.17-1.45 0-.361.01-.73.03-1.12-.47-.204-.78-.603-.78-1.07 0-.487.34-.905.84-1.09.16-5.158.39-10.977.61-11.639.23.662.46 6.481.62 11.639.49.185.84.603.84 1.09 0 .467-.32.866-.78 1.07l.03 1.12c.68.233 1.16.798 1.16 1.45 0 .622-.44 1.167-1.09 1.42.02.584.03 1.071.04 1.421.79.545 2.18 1.518 3.11 2.297.06.048.11.087.16.136.1.078.19.165.28.243.13.117.23.224.32.321.601.671 1.017 1.479 1.209 2.349s.155 1.773-.109 2.624c2.43 1.694 8.7 6.16 12.78 9.78.87.76 1.63 1.489 2.24 2.151.28.312.54.642.79.983l5.11 13.906c-.07-.009 1.95 1.022 2 .974zm124.05-103.758v-24.387c-.31.117-.65.175-1 .175-1.66 0-3-1.304-3-2.919 0-1.275.83-2.355 2-2.745v-11.969c-1.17-.263-2-.983-2-1.83s.83-1.567 2-1.829v-6.443c0-.224.01-.447.02-.671.18-2.433 1.33-4.613 3.08-6.16 1.91-2.453 5.95-7.026 8.9-6.306 0 0-.68-2.054 2.12-4.993l-.05-.077-1.07-1.742 2-1.947-1-.973.63-.603.87-7.669.81 7.601.69.671-1 .973 2 1.947-1.07 1.742-.05.077c2.81 2.939 2.19 4.993 2.19 4.993 3.05-.74 7.27 4.184 9.1 6.559 1.643 1.571 2.642 3.671 2.81 5.907.01.224.02.447.02.671v6.443c1.17.262 2 .982 2 1.829s-.83 1.567-2 1.83v11.969c1.17.39 2 1.47 2 2.745 0 1.615-1.34 2.919-3 2.919-.35 0-.69-.058-1-.175v44.94h10l-4 12.651h-3" fill="#f49886"/><path d="m227.37 189.162v-24.387c-.31.116-.65.175-1 .175-1.66 0-3-1.304-3-2.92 0-1.275.83-2.355 2-2.744v-11.97c-1.17-.263-2-.983-2-1.829 0-.847.83-1.567 2-1.83v-6.442c0-.224.01-.448.02-.672.18-2.433 1.33-4.612 3.08-6.16 1.91-2.452 5.95-7.026 8.9-6.306 0 0-.68-2.053 2.12-4.992l-.05-.078-1.07-1.742 2-1.946-1-.973.63-.604.87-7.668.81 7.6.69.672-1 .973 2 1.946-1.07 1.742-.05.078c2.81 2.939 2.19 4.992 2.19 4.992 3.05-.739 7.27 4.185 9.1 6.559 1.643 1.572 2.642 3.671 2.81 5.907.01.224.02.448.02.672v6.442c1.17.263 2 .983 2 1.83 0 .846-.83 1.566-2 1.829v11.97c1.17.389 2 1.469 2 2.744 0 1.616-1.34 2.92-3 2.92-.35 0-.69-.059-1-.175v44.94h10l-4 12.651h-3l-36.5 11.191 1-31.141zm95-47.568.64 6.812c-12.85 3.523-25.7 1.586-34.27-6.228v-.01l1.52-5.518 2.11-7.707-9-19.463v-31.1411h-8l8-3.6299v-27.0244h-15.5l15.46-7.0165c.04-.2822.04-1.4305.04-1.4305-.21-.0681-.4-.1557-.58-.2628-.434-.2618-.793-.6271-1.041-1.0614-.249-.4342-.379-.9231-.379-1.4201 0-.8953.41-1.6933 1.06-2.2188.65-7.4738 7.09-13.3517 14.94-13.3517.1 0 .21 0 .31.0098l1.44-13.26414 1.44 13.26414c.1-.0098.21-.0098.31-.0098 7.85 0 14.29 5.8779 14.94 13.3517.334.271.602.6104.785.994s.277.8018.275 1.2248c0 .497-.131.9859-.379 1.4201-.249.4343-.607.7996-1.041 1.0614-.18.1071-.37.1947-.58.2628 0 0 .03 1.4305.04 1.4305l15.46 7.0165h-15.5v27.0244l8 3.6299h-8v31.1411l3.31 14.179z" fill="#f49886"/><g fill="#fffcc2"><path d="m191.87 327.466c105.763 0 191.5-83.435 191.5-186.359 0-102.9229-85.737-186.3587-191.5-186.3587-105.7625 0-191.500005 83.4358-191.500005 186.3587 0 102.924 85.737505 186.359 191.500005 186.359z" opacity=".05"/><path d="m191.87 282.701c80.357 0 145.5-63.393 145.5-141.594 0-78.1998-65.143-141.593572-145.5-141.593572s-145.5 63.393772-145.5 141.593572c0 78.201 65.143 141.594 145.5 141.594z" opacity=".11"/><path d="m191.87 239.883c56.057 0 101.5-44.224 101.5-98.776 0-54.5516-45.443-98.7748-101.5-98.7748s-101.5 44.2232-101.5 98.7748c0 54.552 45.443 98.776 101.5 98.776z" opacity=".31"/></g><path d="m100.37 263.238c0 1.071-.9 1.947-2 1.947v24.815h-16.32l-.51-.068c-.7004-1.567-1.6117-3.036-2.71-4.37-.14-.165-.3-.33-.46-.506v-19.871c-1.1 0-2-.876-2-1.947 0-.72.4-1.343 1-1.683v-7.075l-2-1.946 2-1.947v-4.866c0-1.294.52-2.471 1.38-3.347l.18-.175c.04-.039.09-.078.14-.127.04-.039.08-.078.13-.117 1.13-1.041 4.18-3.727 7.13-5.41-.58-.351-.96-.905-.96-1.528 0-.964.9-1.771 2.09-1.917l.91-9.761.91 9.761c1.19.146 2.09.953 2.09 1.917 0 .623-.38 1.177-.96 1.528 2.95 1.683 6 4.369 7.13 5.41.05.039.09.078.13.117.05.049.1.088.14.127l.18.175c.86.876 1.38 2.053 1.38 3.347v4.866l2 1.947-2 1.946v7.075c.6.34 1 .963 1 1.683z" fill="#ad6c62"/><path d="m82.08 289.961-59.85.059c-11.73.009-21.320013 9.361-21.310013 20.776l-.09-90.805c.950003.681 1.920003 1.421 2.710003 2.073l.26.224c.17.146.34.292.48.418.23.205.41.399.56.565 1.48957 1.649 2.31078 3.77 2.31 5.965 0 .905-.13 1.781-.4 2.608 4.19001 2.929 15.02001 10.627 22.08001 16.875 1.49 1.314 2.82 2.569 3.87 3.708 1.67 1.926 3.07 4.067 4.17 6.383 0 0 2.59 12.311 1.77 20.982 3.86-3.231 8.21-6.384 10.43-8.029-.23-.642-.35-1.343-.35-2.063 0-1.557.57-2.988 1.5-4.077.03-.039.06-.078.11-.117.0344-.047.0747-.09.12-.127.17-.175.38-.37.62-.584 1.05-.914 2.61-2.073 3.49-2.715.01-.409.03-.973.04-1.683-.72-.292-1.22-.935-1.22-1.674 0-.759.54-1.431 1.31-1.703l.03-1.324c-.52-.233-.87-.71-.87-1.265 0-.574.39-1.07.94-1.294.17-6.082.43-12.953.68-13.731.25.778.52 7.649.7 13.731.56.224.94.72.94 1.294 0 .555-.35 1.032-.87 1.265l.03 1.324c.77.272 1.31.944 1.31 1.703 0 .739-.5 1.382-1.22 1.674.02.7.03 1.274.04 1.683.89.642 2.45 1.801 3.5 2.715.06.059.11.107.17.156.11.097.22.195.31.292.14.136.27.263.36.38.9774 1.145 1.5086 2.588 1.5 4.077 0 .623-.09 1.216-.26 1.791 2.73 2.004 9.77 7.259 14.36 11.541.76.701 1.46 1.392 2.05 2.024.16.176.32.341.46.506 1.09 1.324 2 2.784 2.71 4.37z" fill="#ad6c62"/><path d="m191.87 201.443c34.242 0 62-27.013 62-60.336 0-33.322-27.758-60.3352-62-60.3352s-62 27.0132-62 60.3352c0 33.323 27.758 60.336 62 60.336z" fill="#fffcc2" opacity=".63"/><path d="m375.37 67.8191v238.5009c-2.1-9.304-10.66-16.32-20.83-16.32h-251.22l10.05-8.272-1-.973 4-2.919v-11.678l1 3.892h1l-.09-39.461v-23.667h-5.89l5.89-2.764v-20.533h-11.41l11.38-5.333c.03-.214.03-1.09.03-1.09-.16-.049-.3-.117-.43-.205-.62-.389-1.04-1.08-1.04-1.878 0-.681.3-1.294.78-1.693.47-5.674 5.21-10.14 10.99-10.14h.23l1.06-10.082 1.06 10.082h.23c5.78 0 10.52 4.466 10.99 10.14.48.399.78 1.012.78 1.693 0 .798-.42 1.489-1.04 1.878-.13.088-.27.156-.43.205 0 0 .02 1.09.03 1.09l11.38 5.333h-11.41v20.533l5.89 2.764h-5.89v38.391l1.07 1.051 1.23-1.197 1.23 1.197 1.23-1.197 1.23 1.197 1.23-1.197 1.22 1.197 1.23-1.197 1.23 1.197 1.23-1.197 1.23 1.197 1.22-1.197 1.23 1.197 1.23-1.197 1.23 1.197 1.23-1.197 1.23 1.197 1.18-1.158v-28.455c-.62-.526-1-1.304-1-2.17 0-1.616 3-3.893 3-3.893s3 2.277 3 3.893c0 .866-.38 1.644-1 2.17v6.588h1v-2.92h2v2.92h1v-2.92h2v2.92h1v-2.92h2v2.92h1v-2.92h1v-1.722c-.62-.526-1-1.304-1-2.17 0-1.616 3-3.893 3-3.893s3 2.277 3 3.893c0 .866-.38 1.644-1 2.17v4.642h1v-2.92h2v2.92h1v-2.92h2v2.92h1v-2.92h2v2.92h1v-2.92h2v2.92h1v-2.92h2v2.92h1v-2.92h2v-5.683c-.61-.525-1-1.275-1-2.102 0-1.615 3.25-3.892 3.25-3.892s3.25 2.277 3.25 3.892c0 .574-.18 1.11-.5 1.557v2.676l1.67-.759v-17.73h-10.17l10.14-4.604c.03-.184.03-.934.03-.934-.14-.048-.26-.097-.38-.175-.56-.331-.93-.934-.93-1.625 0-.584.26-1.109.69-1.45.43-4.905 4.65-8.768 9.8-8.768.07 0 .14 0 .21.01l.33-3.027.61-5.673.88 8.135.06.565c.07-.01.13-.01.2-.01h.01c3.9 0 7.26 2.209 8.85 5.42.52 1.022.85 2.151.95 3.348.43.341.69.866.69 1.45 0 .691-.37 1.294-.93 1.625-.12.078-.24.127-.38.175 0 0 .02.934.03.934l10.14 4.604h-10.17v17.73l5.25 2.385h-5.25v4.846h1.67v-2.92h2v2.92h1v-2.92h2v2.92h1v-2.92h2v-4.71c-.61-.525-1-1.274-1-2.102 0-1.615 3.25-3.892 3.25-3.892s3.25 2.277 3.25 3.892c0 .575-.18 1.11-.5 1.557v5.255h1v2.92h1v-2.92h2v2.92h1v-2.92h2v2.92h1v-2.92h1v-3.736c-.61-.526-1-1.275-1-2.102 0-1.616 3.25-3.893 3.25-3.893s3.25 2.277 3.25 3.893c0 .574-.18 1.109-.5 1.557v6.228h1v-2.92h3l4-12.651h-10s3.26-1.586 6.97-2.413c1.33-.302 2.71-.506 4.03-.506l.42-1.946h.12c-.04-.02-.08-.039-.11-.059-.01 0-.01-.01-.02-.01l-.01.069c-.497-.02-.977-.183-1.378-.47-.401-.286-.706-.682-.874-1.138-.169-.455-.194-.949-.072-1.419.121-.469.384-.893.754-1.216.35-1.713 1.51-3.572 3.32-5.071 1.61-1.323 3.43-2.121 5.08-2.325l.22-2.823.55-6.948.98 6.228.56 3.543c1.65.194 3.48.992 5.09 2.325 1 .828 1.8 1.762 2.37 2.716v-8h-3v-36.98s1-2.919 4-1.946v-2.919l-1-1.947 3.23-4.72c.01.01.03.02.04.03-.012-.011-.023-.025-.03-.039l-.01.009c-5.48-3.97-8.63-11.775-7.51-20.251.4-3.046 1.32-5.878 2.63-8.369.64-2.53 1.52-5.07 2.65-7.571 2.91-6.5008 7.41-12.7971 13.41-18.2468.89-.8077 1.79-1.5862 2.71-2.3161v-.0097c1.62-1.8977 3.37-3.7175 5.29-5.4594 3.18-2.8903 6.58-5.3621 10.09-7.396 5.06-2.9584 10.37-5.0117 15.63-6.1309-.13.9343-.13 1.6447-.13 1.6447l.13-1.6447c.24-1.7224.92-4.1943 2.87-4.1943v-2.9194c0 .9731 2 .9731 2 .9731v-6.812l-2-2.9195-2 .9731v-5.8389l5-1.9463-1-1.9463s6.94-2.0242 11-2.1312v-1.8587c-1.13-.2234-2.146-.8202-2.876-1.6892s-1.129-1.9569-1.129-3.0793.399-2.2102 1.129-3.0793c.73-.869 1.746-1.4658 2.876-1.6891v-1.2457c-1.17-.3892-2-1.4694-2-2.7443 0-1.2748.83-2.355 2-2.7443v-6.3449c-2.99-1.6836-5-4.82689-5-8.42756 0-2.627513 1.07-5.01175 2.82-6.76343-.543 1.21239-.823 2.521267-.82 3.84397 0 5.37181 4.48 9.73152 10 9.73152 1.341.002 2.668-.25985 3.902-.76993 1.234-.51009 2.349-1.2578 3.278-2.19816-.941 2.13447-2.636 3.87039-4.779 4.89329-2.142 1.0229-4.591 1.2652-6.901.6829v5.5664c.9.5061 1.5 1.45 1.5 2.5302s-.6 2.0242-1.5 2.5302v1.5765c1.016.3125 1.903.9319 2.533 1.7683.63.8365.969 1.8465.969 2.8834 0 1.037-.339 2.0469-.969 2.8834-.63.8364-1.517 1.4558-2.533 1.7683v1.9657c3.95-.0681 11.5 2.141 11.5 2.141l-1 1.9463 5 1.9463v5.8389l-2-.9731-2 2.9195v6.812s2 0 2-.9731v2.9194c2.26 0 2.82 3.3282 2.95 4.9534 3.38.9537 6.76 2.2869 10.05 3.9899z" fill="#ad6c62"/><path d="m85.37 255.453 3.5-2.919 3.5 2.919v6.812h-7zm264.5-109.48s-6 3.893-8 4.866-5.11 3.124-5.55 7.396c-.45 4.282-.45 23.745-.45 23.745h24v-21.41s0-3.892 2-5.838c0 0-5.5-4.38-7.5-5.353s-4.5-3.406-4.5-3.406zm-35.81 4.992c-.26.146-.5.263-.69.36-2 .974-5.11 3.124-5.55 7.396-.39 3.708-.44 18.782-.45 22.772h-15s0-19.463.45-23.745c.44-4.272 3.55-6.423 5.55-7.396s8-4.865 8-4.865 2.5 2.432 4.5 3.406c.74.36 1.95 1.187 3.19 2.072z" fill="#f3967a" stroke="#ad6c62" stroke-miterlimit="10"/><path d="m.369995-255.453h375.000005v786.795h-375.000005z" fill="url(#a)"/><g fill="#5c669d"><path d="m103.32 290h-81.12c-11.73 0-21.330005 9.342-21.330005 20.757v-127.872c.630005-.633 1.360005-1.314 2.150005-2.005 5.18-4.593 13-10.198 16.5-12.661-.27-.72-.41-1.508-.41-2.325 0-1.752.66-3.358 1.77-4.584.04-.039.07-.078.12-.126.05-.049.09-.098.15-.146.2-.195.45-.419.73-.643 1.24-1.041 3.08-2.335 4.13-3.055.01-.458.03-1.1.05-1.888-.85-.331-1.44-1.051-1.44-1.879 0-.866.63-1.615 1.54-1.926.01-.477.02-.974.04-1.48-.61-.272-1.03-.807-1.03-1.42 0-.643.45-1.197 1.11-1.45.21-6.842.52-14.559.81-15.435.3.876.6 8.593.82 15.435.66.253 1.11.807 1.11 1.45 0 .613-.42 1.148-1.03 1.42.02.506.03 1.003.04 1.48.91.311 1.54 1.06 1.54 1.926 0 .828-.59 1.548-1.44 1.879.02.778.04 1.42.05 1.888 1.05.72 2.89 2.014 4.13 3.055.07.059.14.107.2.166.14.117.26.224.37.321.17.156.32.302.43.428 1.1415 1.269 1.7705 2.897 1.77 4.584 0 .7-.1 1.372-.31 2.014 3.22 2.248 11.54 8.175 16.95 12.972 1.15 1.012 2.17 1.985 2.98 2.852.29.34.58.681.84 1.041-1.23-7.601-2.17-15.687-2.17-15.687l.13-.02c-.09-1.041-.13-2.082-.13-3.143 0-5.752 1.28-11.211 3.58-16.125 1.52-3.231 3.47-6.219 5.8-8.905 1.47-1.586 3.32-3.338 5.4-5.177 9.41-8.34 23.62-18.529 29.96-22.996-.4922-1.353-.7425-2.778-.74-4.213 0-3.182 1.21-6.102 3.21-8.321.07-.078.14-.155.23-.243.08-.0779.16-.1655.26-.2531.37-.36.82-.759 1.33-1.1775 2.25-1.8782 5.6-4.2332 7.5-5.547.02-.8271.05-1.9949.09-3.4254-1.55-.6034-2.62-1.9074-2.62-3.4158 0-1.5668 1.15-2.9195 2.8-3.4839.02-.8661.04-1.7712.07-2.6957-1.11-.4865-1.87-1.4597-1.87-2.5788 0-1.1678.83-2.1799 2.02-2.6373.39-12.4174.94-26.4308 1.48-28.0171.54 1.5863 1.09 15.5997 1.48 28.0171 1.19.4574 2.02 1.4695 2.02 2.6373 0 1.1191-.76 2.0923-1.87 2.5788.03.9245.05 1.8296.07 2.6957 1.65.5644 2.8 1.9171 2.8 3.4839 0 1.5084-1.07 2.8124-2.62 3.4158.04 1.4208.07 2.5885.09 3.4254 1.9 1.3138 5.25 3.6688 7.5 5.547.13.1071.25.2044.37.3114.24.2044.47.399.67.5839.31.2822.57.545.78.7783 2 2.219 3.21 5.139 3.21 8.321 0 1.265-.19 2.491-.56 3.649 5.85 4.087 20.94 14.841 30.78 23.56 2.08 1.839 3.93 3.591 5.4 5.177 2.33 2.686 4.28 5.674 5.8 8.905 2.3 4.914 3.58 10.373 3.58 16.125 0 6.15-1.47 11.979-4.09 17.157 1.68.875 2.98 1.197 3.85 1.313.24-1.352.66-2.656 1.23-3.873.63-1.343 1.44-2.588 2.41-3.698.61-.662 1.37-1.391 2.24-2.151 3.91-3.464 9.81-7.697 12.44-9.546-.206-.563-.31-1.155-.31-1.752 0-1.323.5-2.53 1.33-3.455.03-.029.06-.068.1-.097.03-.039.07-.078.11-.107.15-.156.34-.321.55-.496.93-.779 2.33-1.752 3.11-2.297.01-.35.03-.827.04-1.421-.64-.253-1.09-.798-1.09-1.42 0-.652.48-1.217 1.17-1.45 0-.361.01-.73.03-1.12-.47-.204-.78-.603-.78-1.07 0-.487.34-.905.84-1.09.16-5.158.39-10.977.61-11.639.23.662.46 6.481.62 11.639.49.185.84.603.84 1.09 0 .467-.32.866-.78 1.07l.03 1.12c.68.233 1.16.798 1.16 1.45 0 .622-.44 1.167-1.09 1.42.02.584.03 1.071.04 1.421.79.545 2.18 1.518 3.11 2.297.06.048.11.087.16.136.1.078.19.165.28.243.13.117.23.224.32.321.601.671 1.017 1.479 1.209 2.349s.155 1.773-.109 2.624c2.43 1.694 8.7 6.16 12.78 9.78.87.76 1.63 1.489 2.24 2.151.28.312.54.642.79.983l5.11 13.906c-.07-.009 1.95 1.022 2 .974v97.315z" opacity=".51"/><path d="m227.37 189.162v-24.387c-.31.116-.65.175-1 .175-1.66 0-3-1.304-3-2.92 0-1.275.83-2.355 2-2.744v-11.97c-1.17-.263-2-.983-2-1.829 0-.847.83-1.567 2-1.83v-6.442c0-.224.01-.448.02-.672.18-2.433 1.33-4.612 3.08-6.16 1.91-2.452 5.95-7.026 8.9-6.306 0 0-.68-2.053 2.12-4.992l-.05-.078-1.07-1.742 2-1.946-1-.973.63-.604.87-7.668.81 7.6.69.672-1 .973 2 1.946-1.07 1.742-.05.078c2.81 2.939 2.19 4.992 2.19 4.992 3.05-.739 7.27 4.185 9.1 6.559 1.643 1.572 2.642 3.671 2.81 5.907.01.224.02.448.02.672v6.442c1.17.263 2 .983 2 1.83 0 .846-.83 1.566-2 1.829v11.97c1.17.389 2 1.469 2 2.744 0 1.616-1.34 2.92-3 2.92-.35 0-.69-.059-1-.175v44.94h10l-4 12.651h-3l-36.5 11.191 1-31.141zm95-47.568.64 6.812c-12.85 3.523-25.7 1.586-34.27-6.228v-.01l1.52-5.518 2.11-7.707-9-19.463v-31.1411h-8l8-3.6299v-27.0244h-15.5l15.46-7.0165c.04-.2822.04-1.4305.04-1.4305-.21-.0681-.4-.1557-.58-.2628-.434-.2618-.793-.6271-1.041-1.0614-.249-.4342-.379-.9231-.379-1.4201 0-.8953.41-1.6933 1.06-2.2188.65-7.4738 7.09-13.3517 14.94-13.3517.1 0 .21 0 .31.0098l1.44-13.26414 1.44 13.26414c.1-.0098.21-.0098.31-.0098 7.85 0 14.29 5.8779 14.94 13.3517.334.271.602.6104.785.994s.277.8018.275 1.2248c0 .497-.131.9859-.379 1.4201-.249.4343-.607.7996-1.041 1.0614-.18.1071-.37.1947-.58.2628 0 0 .03 1.4305.04 1.4305l15.46 7.0165h-15.5v27.0244l8 3.6299h-8v31.1411l3.31 14.179z" opacity=".51"/><path d="m100.37 263.238c0 1.071-.9 1.947-2 1.947v24.815h-16.32l-.51-.068c-.7004-1.567-1.6117-3.036-2.71-4.37-.14-.165-.3-.33-.46-.506v-19.871c-1.1 0-2-.876-2-1.947 0-.72.4-1.343 1-1.683v-7.075l-2-1.946 2-1.947v-4.866c0-1.294.52-2.471 1.38-3.347l.18-.175c.04-.039.09-.078.14-.127.04-.039.08-.078.13-.117 1.13-1.041 4.18-3.727 7.13-5.41-.58-.351-.96-.905-.96-1.528 0-.964.9-1.771 2.09-1.917l.91-9.761.91 9.761c1.19.146 2.09.953 2.09 1.917 0 .623-.38 1.177-.96 1.528 2.95 1.683 6 4.369 7.13 5.41.05.039.09.078.13.117.05.049.1.088.14.127l.18.175c.86.876 1.38 2.053 1.38 3.347v4.866l2 1.947-2 1.946v7.075c.6.34 1 .963 1 1.683z"/><path d="m82.08 289.961-59.85.059c-11.73.009-21.320013 9.361-21.310013 20.776l-.09-90.805c.950003.681 1.920003 1.421 2.710003 2.073l.26.224c.17.146.34.292.48.418.23.205.41.399.56.565 1.48957 1.649 2.31078 3.77 2.31 5.965 0 .905-.13 1.781-.4 2.608 4.19001 2.929 15.02001 10.627 22.08001 16.875 1.49 1.314 2.82 2.569 3.87 3.708 1.67 1.926 3.07 4.067 4.17 6.383 0 0 2.59 12.311 1.77 20.982 3.86-3.231 8.21-6.384 10.43-8.029-.23-.642-.35-1.343-.35-2.063 0-1.557.57-2.988 1.5-4.077.03-.039.06-.078.11-.117.0344-.047.0747-.09.12-.127.17-.175.38-.37.62-.584 1.05-.914 2.61-2.073 3.49-2.715.01-.409.03-.973.04-1.683-.72-.292-1.22-.935-1.22-1.674 0-.759.54-1.431 1.31-1.703l.03-1.324c-.52-.233-.87-.71-.87-1.265 0-.574.39-1.07.94-1.294.17-6.082.43-12.953.68-13.731.25.778.52 7.649.7 13.731.56.224.94.72.94 1.294 0 .555-.35 1.032-.87 1.265l.03 1.324c.77.272 1.31.944 1.31 1.703 0 .739-.5 1.382-1.22 1.674.02.7.03 1.274.04 1.683.89.642 2.45 1.801 3.5 2.715.06.059.11.107.17.156.11.097.22.195.31.292.14.136.27.263.36.38.9774 1.145 1.5086 2.588 1.5 4.077 0 .623-.09 1.216-.26 1.791 2.73 2.004 9.77 7.259 14.36 11.541.76.701 1.46 1.392 2.05 2.024.16.176.32.341.46.506 1.09 1.324 2 2.784 2.71 4.37z"/></g><path d="m191.87 181.98c86.156 0 156-67.969 156-151.8122 0-83.8435-69.844-151.8118-156-151.8118s-156 67.9683-156 151.8118c0 83.8432 69.844 151.8122 156 151.8122z" fill="#fffcc2" opacity=".13"/><path d="m191.87 151.355c68.776 0 124.53-54.2575 124.53-121.1872s-55.754-121.1869-124.53-121.1869-124.53 54.2572-124.53 121.1869 55.754 121.1872 124.53 121.1872z" fill="#fffcc2" opacity=".11"/><path d="m191.87 119.387c51.39 0 93.05-40.5419 93.05-90.5524s-41.66-90.5521-93.05-90.5521-93.05 40.5416-93.05 90.5521 41.66 90.5524 93.05 90.5524z" fill="#eaeeb7" opacity=".48"/><path d="m191.87 87.9439c32.789 0 59.37-25.8672 59.37-57.7761 0-31.90893-26.581-57.7762-59.37-57.7762s-59.37 25.86727-59.37 57.7762c0 31.9089 26.581 57.7761 59.37 57.7761z" fill="#fff59b" opacity=".33"/><path d="m375.37 67.8191v238.5009c-2.1-9.304-10.66-16.32-20.83-16.32h-251.22l10.05-8.272-1-.973 4-2.919v-11.678l1 3.892h1l-.09-39.461v-23.667h-5.89l5.89-2.764v-20.533h-11.41l11.38-5.333c.03-.214.03-1.09.03-1.09-.16-.049-.3-.117-.43-.205-.62-.389-1.04-1.08-1.04-1.878 0-.681.3-1.294.78-1.693.47-5.674 5.21-10.14 10.99-10.14h.23l1.06-10.082 1.06 10.082h.23c5.78 0 10.52 4.466 10.99 10.14.48.399.78 1.012.78 1.693 0 .798-.42 1.489-1.04 1.878-.13.088-.27.156-.43.205 0 0 .02 1.09.03 1.09l11.38 5.333h-11.41v20.533l5.89 2.764h-5.89v38.391l1.07 1.051 1.23-1.197 1.23 1.197 1.23-1.197 1.23 1.197 1.23-1.197 1.22 1.197 1.23-1.197 1.23 1.197 1.23-1.197 1.23 1.197 1.22-1.197 1.23 1.197 1.23-1.197 1.23 1.197 1.23-1.197 1.23 1.197 1.18-1.158v-28.455c-.62-.526-1-1.304-1-2.17 0-1.616 3-3.893 3-3.893s3 2.277 3 3.893c0 .866-.38 1.644-1 2.17v6.588h1v-2.92h2v2.92h1v-2.92h2v2.92h1v-2.92h2v2.92h1v-2.92h1v-1.722c-.62-.526-1-1.304-1-2.17 0-1.616 3-3.893 3-3.893s3 2.277 3 3.893c0 .866-.38 1.644-1 2.17v4.642h1v-2.92h2v2.92h1v-2.92h2v2.92h1v-2.92h2v2.92h1v-2.92h2v2.92h1v-2.92h2v2.92h1v-2.92h2v-5.683c-.61-.525-1-1.275-1-2.102 0-1.615 3.25-3.892 3.25-3.892s3.25 2.277 3.25 3.892c0 .574-.18 1.11-.5 1.557v2.676l1.67-.759v-17.73h-10.17l10.14-4.604c.03-.184.03-.934.03-.934-.14-.048-.26-.097-.38-.175-.56-.331-.93-.934-.93-1.625 0-.584.26-1.109.69-1.45.43-4.905 4.65-8.768 9.8-8.768.07 0 .14 0 .21.01l.33-3.027.61-5.673.88 8.135.06.565c.07-.01.13-.01.2-.01h.01c3.9 0 7.26 2.209 8.85 5.42.52 1.022.85 2.151.95 3.348.43.341.69.866.69 1.45 0 .691-.37 1.294-.93 1.625-.12.078-.24.127-.38.175 0 0 .02.934.03.934l10.14 4.604h-10.17v17.73l5.25 2.385h-5.25v4.846h1.67v-2.92h2v2.92h1v-2.92h2v2.92h1v-2.92h2v-4.71c-.61-.525-1-1.274-1-2.102 0-1.615 3.25-3.892 3.25-3.892s3.25 2.277 3.25 3.892c0 .575-.18 1.11-.5 1.557v5.255h1v2.92h1v-2.92h2v2.92h1v-2.92h2v2.92h1v-2.92h1v-3.736c-.61-.526-1-1.275-1-2.102 0-1.616 3.25-3.893 3.25-3.893s3.25 2.277 3.25 3.893c0 .574-.18 1.109-.5 1.557v6.228h1v-2.92h3l4-12.651h-10s3.26-1.586 6.97-2.413c1.33-.302 2.71-.506 4.03-.506l.42-1.946h.12c-.04-.02-.08-.039-.11-.059-.01 0-.01-.01-.02-.01l-.01.069c-.497-.02-.977-.183-1.378-.47-.401-.286-.706-.682-.874-1.138-.169-.455-.194-.949-.072-1.419.121-.469.384-.893.754-1.216.35-1.713 1.51-3.572 3.32-5.071 1.61-1.323 3.43-2.121 5.08-2.325l.22-2.823.55-6.948.98 6.228.56 3.543c1.65.194 3.48.992 5.09 2.325 1 .828 1.8 1.762 2.37 2.716v-8h-3v-36.98s1-2.919 4-1.946v-2.919l-1-1.947 3.23-4.72c.01.01.03.02.04.03-.012-.011-.023-.025-.03-.039l-.01.009c-5.48-3.97-8.63-11.775-7.51-20.251.4-3.046 1.32-5.878 2.63-8.369.64-2.53 1.52-5.07 2.65-7.571 2.91-6.5008 7.41-12.7971 13.41-18.2468.89-.8077 1.79-1.5862 2.71-2.3161v-.0097c1.62-1.8977 3.37-3.7175 5.29-5.4594 3.18-2.8903 6.58-5.3621 10.09-7.396 5.06-2.9584 10.37-5.0117 15.63-6.1309-.13.9343-.13 1.6447-.13 1.6447l.13-1.6447c.24-1.7224.92-4.1943 2.87-4.1943v-2.9194c0 .9731 2 .9731 2 .9731v-6.812l-2-2.9195-2 .9731v-5.8389l5-1.9463-1-1.9463s6.94-2.0242 11-2.1312v-1.8587c-1.13-.2234-2.146-.8202-2.876-1.6892s-1.129-1.9569-1.129-3.0793.399-2.2102 1.129-3.0793c.73-.869 1.746-1.4658 2.876-1.6891v-1.2457c-1.17-.3892-2-1.4694-2-2.7443 0-1.2748.83-2.355 2-2.7443v-6.3449c-2.99-1.6836-5-4.82689-5-8.42756 0-2.627513 1.07-5.01175 2.82-6.76343-.543 1.21239-.823 2.521267-.82 3.84397 0 5.37181 4.48 9.73152 10 9.73152 1.341.002 2.668-.25985 3.902-.76993 1.234-.51009 2.349-1.2578 3.278-2.19816-.941 2.13447-2.636 3.87039-4.779 4.89329-2.142 1.0229-4.591 1.2652-6.901.6829v5.5664c.9.5061 1.5 1.45 1.5 2.5302s-.6 2.0242-1.5 2.5302v1.5765c1.016.3125 1.903.9319 2.533 1.7683.63.8365.969 1.8465.969 2.8834 0 1.037-.339 2.0469-.969 2.8834-.63.8364-1.517 1.4558-2.533 1.7683v1.9657c3.95-.0681 11.5 2.141 11.5 2.141l-1 1.9463 5 1.9463v5.8389l-2-.9731-2 2.9195v6.812s2 0 2-.9731v2.9194c2.26 0 2.82 3.3282 2.95 4.9534 3.38.9537 6.76 2.2869 10.05 3.9899z" fill="#5c669d"/><path d="m349.87 145.973s-6 3.893-8 4.866-5.11 3.124-5.55 7.396c-.45 4.282-.45 23.745-.45 23.745h24v-21.41s0-3.892 2-5.838c0 0-5.5-4.38-7.5-5.353s-4.5-3.406-4.5-3.406zm-35.81 4.992c-.26.146-.5.263-.69.36-2 .974-5.11 3.124-5.55 7.396-.39 3.708-.44 18.782-.45 22.772h-15s0-19.463.45-23.745c.44-4.272 3.55-6.423 5.55-7.396s8-4.865 8-4.865 2.5 2.432 4.5 3.406c.74.36 1.95 1.187 3.19 2.072z" fill="#5c669d" opacity=".51"/></g></svg>