<svg fill="none" height="230" viewBox="0 0 375 230" width="375" xmlns="http://www.w3.org/2000/svg" xmlns:xlink="http://www.w3.org/1999/xlink"><linearGradient id="a" gradientUnits="userSpaceOnUse" x1="187.997" x2="187.997" y1="-249.515" y2="296.101"><stop offset="0" stop-color="#000018"/><stop offset="1" stop-color="#a5c5fd"/></linearGradient><linearGradient id="b"><stop offset="0" stop-color="#a7a7a7"/><stop offset=".09" stop-color="#898989"/><stop offset=".234" stop-color="#5f5f5f"/><stop offset=".381" stop-color="#3d3d3d"/><stop offset=".529" stop-color="#222"/><stop offset=".68" stop-color="#0f0f0f"/><stop offset=".835" stop-color="#040404"/><stop offset="1"/></linearGradient><linearGradient id="c" gradientUnits="userSpaceOnUse" x1="325.134" x2="310.747" xlink:href="#b" y1="-5.23393" y2="-10.6661"/><linearGradient id="d" gradientUnits="userSpaceOnUse" x1="359.326" x2="327.43" xlink:href="#b" y1="-10.9163" y2="-22.9601"/><linearGradient id="e" gradientUnits="userSpaceOnUse" x1="290.884" x2="269.507" xlink:href="#b" y1="-7.01106" y2="-15.0831"/><linearGradient id="f" gradientUnits="userSpaceOnUse" x1="53.5812" x2="18.1981" xlink:href="#b" y1="-5.8758" y2="-19.2363"/><linearGradient id="g"><stop offset="0" stop-color="#c3c3c3"/><stop offset=".102" stop-color="#a7a7a7"/><stop offset=".335" stop-color="#6c6c6c"/><stop offset=".55" stop-color="#3d3d3d"/><stop offset=".739" stop-color="#1c1c1c"/><stop offset=".895" stop-color="#070707"/><stop offset="1"/></linearGradient><linearGradient id="h" gradientUnits="userSpaceOnUse" x1="183.561" x2="141.47" xlink:href="#g" y1="20.7003" y2="4.80707"/><linearGradient id="i" gradientUnits="userSpaceOnUse" x1="266.685" x2="247.847" xlink:href="#g" y1="61.936" y2="54.823"/><linearGradient id="j" gradientUnits="userSpaceOnUse" x1="22.0605" x2="14.1921" xlink:href="#g" y1="51.6582" y2="48.6871"/><linearGradient id="k" gradientUnits="userSpaceOnUse" x1="189.216" x2="182.2" xlink:href="#g" y1="33.7072" y2="31.058"/><linearGradient id="l" gradientUnits="userSpaceOnUse" x1="368.536" x2="345.748" xlink:href="#g" y1="63.1522" y2="54.5478"/><linearGradient id="m" gradientUnits="userSpaceOnUse" x1="163.205" x2="155.136" xlink:href="#g" y1="60.9869" y2="57.94"/><linearGradient id="n" gradientUnits="userSpaceOnUse" x1="223.249" x2="205" xlink:href="#g" y1="16.9703" y2="10.0794"/><linearGradient id="o" gradientUnits="userSpaceOnUse" x1="353.229" x2="328.288" xlink:href="#g" y1="4.01963" y2="-5.39795"/><linearGradient id="p" gradientUnits="userSpaceOnUse" x1="331.403" x2="322.964" xlink:href="#g" y1="28.3816" y2="25.1952"/><linearGradient id="q" gradientUnits="userSpaceOnUse" x1="207.764" x2="186.234" xlink:href="#g" y1="-6.31271" y2="-14.4424"/><linearGradient id="r" gradientUnits="userSpaceOnUse" x1="272.874" x2="223.644" xlink:href="#g" y1="-19.7332" y2="-38.3221"/><linearGradient id="s" gradientUnits="userSpaceOnUse" x1="60.2651" x2="52.2334" xlink:href="#g" y1="60.4804" y2="57.4477"/><linearGradient id="t" gradientUnits="userSpaceOnUse" x1="311.621" x2="269.857" xlink:href="#g" y1="54.4441" y2="38.6742"/><linearGradient id="u" gradientUnits="userSpaceOnUse" x1="140.681" x2="128.697" xlink:href="#g" y1="44.5163" y2="39.9911"/><linearGradient id="v" gradientUnits="userSpaceOnUse" x1="243.142" x2="218.882" xlink:href="#g" y1="-3.30041" y2="-12.4606"/><linearGradient id="w" gradientUnits="userSpaceOnUse" x1="46.8775" x2="17.0827" xlink:href="#g" y1="-2.84257" y2="-14.093"/><linearGradient id="x" gradientUnits="userSpaceOnUse" x1="298.945" x2="274.189" xlink:href="#g" y1="27.8391" y2="18.4915"/><linearGradient id="y" gradientUnits="userSpaceOnUse" x1="171.204" x2="153.169" xlink:href="#g" y1="-5.91885" y2="-12.7288"/><linearGradient id="z" gradientUnits="userSpaceOnUse" x1="324.374" x2="317.66" xlink:href="#g" y1="59.6548" y2="57.1196"/><linearGradient id="A" gradientUnits="userSpaceOnUse" x1="9.24976" x2="1.33708" xlink:href="#g" y1="5.47249" y2="2.4847"/><linearGradient id="B" gradientUnits="userSpaceOnUse" x1="221.587" x2="193.596" xlink:href="#g" y1="59.5905" y2="49.0213"/><linearGradient id="C" gradientUnits="userSpaceOnUse" x1="108.586" x2="71.6852" xlink:href="#g" y1="38.2892" y2="24.3556"/><linearGradient id="D" gradientUnits="userSpaceOnUse" x1="282.611" x2="268.227" xlink:href="#g" y1="-1.37976" y2="-6.81105"/><linearGradient id="E" gradientUnits="userSpaceOnUse" x1="382.61" x2="342.688" xlink:href="#g" y1="33.4219" y2="18.3472"/><linearGradient id="F" gradientUnits="userSpaceOnUse" x1="252.117" x2="224.329" xlink:href="#g" y1="38.8372" y2="28.3446"/><linearGradient id="G" gradientUnits="userSpaceOnUse" x1="257.981" x2="250.132" xlink:href="#g" y1="14.568" y2="11.604"/><linearGradient id="H" gradientUnits="userSpaceOnUse" x1="122.67" x2="114.359" xlink:href="#g" y1="-3.81539" y2="-6.95364"/><linearGradient id="I" gradientUnits="userSpaceOnUse" x1="61.3925" x2="53.4027" xlink:href="#g" y1="41.3638" y2="38.3468"/><linearGradient id="J" gradientUnits="userSpaceOnUse" x1="330.678" x2="285.253" xlink:href="#g" y1="7.73302" y2="-9.4194"/><linearGradient id="K" gradientUnits="userSpaceOnUse" x1="108.95" x2="65.3767" xlink:href="#g" y1="12.4322" y2="-4.02094"/><linearGradient id="L" gradientUnits="userSpaceOnUse" x1="67.4537" x2="22.2391" xlink:href="#g" y1="23.0935" y2="6.02065"/><linearGradient id="M" gradientUnits="userSpaceOnUse" x1="135.793" x2="117.108" xlink:href="#g" y1="22.0521" y2="14.9971"/><linearGradient id="N" gradientUnits="userSpaceOnUse" x1="106.801" x2="99.9512" xlink:href="#g" y1="60.489" y2="57.9027"/><clipPath id="O"><path d="m0 0h375v230h-375z"/></clipPath><g clip-path="url(#O)"><path d="m103.27 294.182-81.1199-.029c-11.73 0-21.330041 9.332-21.340041 20.747l.04-127.872c.630001-.633 1.360001-1.314 2.150001-2.005 5.18-4.593 13.00004-10.199 16.50004-12.651-.27-.72-.41-1.508-.41-2.326 0-1.751.66-3.357 1.77-4.583.04-.039.07-.078.12-.127.05-.048.09-.097.15-.146.2-.194.45-.418.73-.642 1.24-1.041 3.08-2.336 4.13-3.056.01-.457.03-1.099.05-1.888-.85-.331-1.44-1.051-1.44-1.878 0-.866.63-1.615 1.54-1.927.01-.477.02-.973.04-1.479-.61-.272-1.03-.808-1.03-1.421 0-.642.45-1.197 1.11-1.45.21-6.841.52-14.558.81-15.434.3.876.6 8.593.82 15.434.66.253 1.11.808 1.11 1.45 0 .613-.42 1.149-1.03 1.421.02.506.03 1.002.04 1.479.91.312 1.54 1.061 1.54 1.927 0 .827-.59 1.547-1.44 1.878.02.779.04 1.421.05 1.888 1.05.72 2.89 2.015 4.13 3.056.07.058.14.107.2.165.14.117.26.224.37.322.17.155.32.301.43.428 1.1415 1.268 1.7705 2.897 1.77 4.583 0 .701-.1 1.372-.31 2.015 3.22 2.248 11.54 8.174 16.95 12.982 1.15 1.012 2.17 1.985 2.98 2.851.29.341.58.681.84 1.041-1.23-7.6-2.16-15.687-2.16-15.687l.13-.02c-.09-1.041-.13-2.082-.13-3.143 0-5.751 1.28-11.211 3.59-16.125 1.52-3.231 3.47-6.218 5.8-8.904 1.47-1.587 3.32-3.338 5.4-5.177 9.41-8.34 23.63-18.52 29.97-22.986-.4923-1.354-.7425-2.779-.74-4.214 0-3.182 1.21-6.102 3.2099-8.321.07-.077.14-.155.23-.243.08-.078.16-.165.26-.253.37-.36.82-.759 1.33-1.177 2.25-1.879 5.6-4.2337 7.5-5.5474.02-.8272.05-1.995.09-3.4255-1.55-.6034-2.62-1.9074-2.62-3.4158 0-1.5668 1.15-2.9195 2.8-3.4839.02-.8661.04-1.7711.07-2.6956-1.11-.4866-1.87-1.4598-1.87-2.5789 0-1.1678.83-2.1799 2.02-2.6372.39-12.4175.95-26.4309 1.49-28.0172.54 1.5863 1.08 15.5997 1.47 28.0172 1.19.4573 2.02 1.4694 2.02 2.6372 0 1.1191-.76 2.0923-1.87 2.5789.03.9245.05 1.8295.07 2.6956 1.65.5644 2.8 1.9171 2.8 3.4839 0 1.5084-1.07 2.8124-2.62 3.4158.04 1.4208.07 2.5885.09 3.4255 1.9 1.3137 5.25 3.6684 7.5 5.5474.13.107.25.204.37.311.24.204.47.399.67.584.31.282.57.545.78.778 2 2.219 3.21 5.139 3.21 8.321 0 1.265-.19 2.491-.56 3.649 5.85 4.087 20.94 14.85 30.77 23.57 2.08 1.839 3.93 3.591 5.4 5.177 2.33 2.686 4.28 5.674 5.8 8.905 2.3 4.914 3.58 10.373 3.57 16.125 0 6.15-1.47 11.979-4.1 17.156 1.68.876 2.98 1.197 3.85 1.314.24-1.353.66-2.657 1.23-3.873.63-1.343 1.44-2.589 2.41-3.698.61-.662 1.37-1.392 2.24-2.151 3.91-3.464 9.81-7.697 12.44-9.546-.206-.563-.31-1.155-.31-1.752 0-1.323.5-2.53 1.33-3.455.03-.029.06-.068.1-.097.03-.039.07-.078.11-.107.15-.156.34-.321.55-.496.93-.779 2.33-1.752 3.11-2.297.01-.35.03-.827.04-1.421-.64-.253-1.09-.798-1.09-1.421 0-.652.48-1.216 1.17-1.45 0-.36.01-.729.03-1.119-.47-.204-.78-.603-.78-1.07 0-.487.34-.905.84-1.09.16-5.158.39-10.977.61-11.639.23.662.46 6.481.62 11.639.49.185.84.603.84 1.09 0 .467-.32.866-.78 1.07l.03 1.119c.68.234 1.16.798 1.16 1.45 0 .623-.44 1.168-1.09 1.421.02.584.03 1.071.04 1.421.79.545 2.18 1.518 3.11 2.297.06.048.11.087.16.136.1.078.19.165.28.243.13.117.23.224.32.321.601.671 1.017 1.479 1.209 2.349.193.869.155 1.772-.109 2.624 2.43 1.693 8.7 6.16 12.78 9.78.87.759 1.63 1.489 2.24 2.151.28.311.54.642.79.983l5.11 13.906c-.07-.009 1.95 1.022 2 .973zm124.09-103.719.01-24.387c-.31.117-.65.175-1 .175-1.66 0-3-1.304-3-2.919 0-1.275.83-2.356 2-2.745v-11.97c-1.17-.262-2-.982-2-1.829s.83-1.567 2-1.83v-6.442c0-.224.01-.448.02-.671.18-2.433 1.33-4.613 3.08-6.16 1.91-2.453 5.95-7.027 8.9-6.306 0 0-.68-2.054 2.12-4.993l-.05-.078-1.07-1.742 2-1.946-1-.973.63-.603.87-7.669.81 7.6.69.672-1 .973 2 1.946-1.07 1.742-.05.078c2.81 2.939 2.19 4.993 2.19 4.993 3.05-.74 7.27 4.184 9.1 6.559 1.643 1.571 2.642 3.671 2.81 5.907.01.223.02.447.02.671v6.442c1.17.263 2 .983 2 1.83s-.83 1.567-2 1.829v11.97c1.17.389 2 1.47 2 2.745 0 1.615-1.34 2.919-3 2.919-.35 0-.69-.058-1-.175l-.01 44.94h10l-4 12.651h-3" fill="#f49886"/><path d="m227.35 193.383.01-24.388c-.31.117-.65.175-1 .175-1.66 0-3-1.304-3-2.919 0-1.275.83-2.355 2-2.744v-11.97c-1.17-.263-2-.983-2-1.83 0-.846.83-1.566 2-1.829v-6.442c0-.224.01-.448.02-.672.18-2.433 1.33-4.613 3.08-6.16 1.91-2.452 5.95-7.026 8.9-6.306 0 0-.68-2.053 2.12-4.992l-.05-.078-1.07-1.742 2-1.946-1-.974.63-.603.87-7.668.81 7.6.69.671-1 .974 2 1.946-1.07 1.742-.05.078c2.81 2.939 2.19 4.992 2.19 4.992 3.05-.74 7.27 4.185 9.1 6.559 1.643 1.572 2.642 3.671 2.81 5.907.01.224.02.448.02.672v6.442c1.17.263 2 .983 2 1.829 0 .847-.83 1.567-2 1.83v11.97c1.17.389 2 1.469 2 2.744 0 1.615-1.34 2.919-3 2.919-.35 0-.69-.058-1-.175l-.01 44.941h10l-4 12.651h-3l-36.5 11.181 1.01-31.141zm95.02-47.539.64 6.812c-12.85 3.523-25.7 1.577-34.27-6.238v-.01l1.52-5.517 2.11-7.708-8.99-19.463.01-31.1408h-8l8-3.6299.01-27.0245h-15.5l15.46-7.0164c.04-.2822.04-1.4305.04-1.4305-.21-.0682-.4-.1558-.58-.2628-.434-.2618-.793-.6271-1.041-1.0614-.249-.4343-.379-.9231-.379-1.4202 0-.8953.41-1.6932 1.06-2.2187.65-7.4739 7.09-13.3517 14.94-13.3517.1 0 .21 0 .31.0097l1.44-13.2641 1.44 13.2641c.1-.0097.21-.0097.31-.0097 7.85 0 14.29 5.8778 14.94 13.3517.334.271.602.6104.785.994.183.3835.277.8018.275 1.2247 0 .4971-.131.9859-.379 1.4202-.249.4343-.607.7996-1.041 1.0614-.18.107-.37.1946-.58.2628 0 0 .03 1.4305.04 1.4305l15.46 7.0164h-15.5l-.01 27.0245 8 3.6299h-8l-.01 31.1408 3.31 14.179z" fill="#f49886"/><g fill="#fffcc2"><path d="m191.87 331.677c105.763 0 191.5-83.435 191.5-186.359 0-102.9228-85.737-186.3586-191.5-186.3586-105.7625 0-191.500005 83.4358-191.500005 186.3586 0 102.924 85.737505 186.359 191.500005 186.359z" opacity=".05"/><path d="m191.87 286.912c80.357 0 145.5-63.393 145.5-141.594 0-78.1997-65.143-141.59351-145.5-141.59351s-145.5 63.39381-145.5 141.59351c0 78.201 65.143 141.594 145.5 141.594z" opacity=".11"/><path d="m191.87 244.094c56.057 0 101.5-44.224 101.5-98.776 0-54.5516-45.443-98.7747-101.5-98.7747s-101.5 44.2231-101.5 98.7747c0 54.552 45.443 98.776 101.5 98.776z" opacity=".31"/></g><path d="m100.33 267.42c0 1.071-.9 1.946-2 1.946l-.01 24.816h-16.32l-.51-.068c-.7004-1.567-1.6117-3.037-2.71-4.37-.14-.165-.3-.331-.46-.506l.01-19.872c-1.1 0-2-.875-2-1.946 0-.72.4-1.343 1-1.683v-7.075l-2-1.947 2-1.946v-4.866c0-1.294.52-2.471 1.38-3.347l.18-.175c.04-.039.09-.078.14-.127.04-.039.08-.078.13-.117 1.13-1.041 4.18-3.727 7.13-5.41-.58-.351-.96-.906-.96-1.528 0-.964.9-1.771 2.09-1.917l.91-9.761.91 9.761c1.19.146 2.09.953 2.09 1.917 0 .622-.38 1.177-.96 1.528 2.95 1.683 6 4.369 7.13 5.41.05.039.09.078.13.117.05.049.1.088.14.127l.18.175c.86.876 1.38 2.053 1.38 3.347v4.866l2 1.946-2 1.947v7.075c.6.34 1 .963 1 1.683z" fill="#ad6c62"/><path d="m82.03 294.143-59.85.039c-11.7299.01-21.319951 9.352-21.319951 20.767l-.06-90.805c.950001.681 1.920001 1.421 2.710001 2.073l.26.224c.17.146.34.292.48.418.90798.842 1.62992 1.855 2.12167 2.978.49176 1.123.74299 2.331.73833 3.552 0 .905-.13 1.781-.4 2.608 4.18995 2.929 15.02005 10.627 22.07005 16.884 1.49 1.314 2.82 2.569 3.87 3.708 1.6775 1.935 3.077 4.082 4.16 6.384 0 0 2.5899 12.31 1.7599 20.981 3.86-3.231 8.22-6.384 10.43-8.029-.23-.642-.3499-1.343-.3499-2.063 0-1.557.57-2.987 1.5-4.077.03-.039.0599-.078.1099-.117.0345-.047.0748-.089.1201-.126.17-.176.3799-.37.6199-.584 1.05-.915 2.6101-2.073 3.4901-2.715.01-.409.0299-.974.0399-1.684-.72-.292-1.2199-.934-1.2199-1.674 0-.759.5399-1.43 1.3099-1.703l.0301-1.323c-.52-.234-.8701-.711-.8701-1.265 0-.575.3901-1.071.9401-1.295.18-6.082.43-12.952.68-13.731.25.779.5199 7.649.6999 13.731.56.224.9401.72.9401 1.295 0 .554-.3501 1.031-.8701 1.265l.0301 1.323c.77.273 1.3099.944 1.3099 1.703 0 .74-.4999 1.382-1.2199 1.674.02.701.03 1.275.04 1.684.89.642 2.45 1.8 3.5 2.715.06.058.1099.107.1699.155.11.098.2201.195.3101.292.14.137.2699.263.3599.38.9775 1.145 1.5087 2.589 1.5 4.077 0 .623-.09 1.217-.26 1.791 2.73 2.005 9.76 7.26 14.36 11.542.76.7 1.46 1.391 2.05 2.024.16.175.32.34.46.506 1.09 1.323 2 2.783 2.71 4.369z" fill="#ad6c62"/><path d="m191.87 205.654c34.242 0 62-27.013 62-60.336 0-33.322-27.758-60.3351-62-60.3351s-62 27.0131-62 60.3351c0 33.323 27.758 60.336 62 60.336z" fill="#fffcc2" opacity=".63"/><path d="m375.39 72.0886-.08 238.5004c-2.1-9.303-10.65-16.32-20.82-16.329l-251.22-.078 10.05-8.272-1-.973 4-2.92v-11.677l1 3.892h1l-.08-39.461.01-23.667h-5.89l5.89-2.764.01-20.534h-11.41l11.38-5.333c.03-.214.03-1.089.03-1.089-.16-.049-.3-.117-.43-.205-.62-.389-1.04-1.08-1.04-1.878 0-.681.3-1.294.78-1.693.47-5.674 5.21-10.141 10.99-10.141h.23l1.06-10.081 1.06 10.081h.23c5.78 0 10.52 4.467 10.99 10.141.48.399.78 1.012.78 1.693 0 .798-.42 1.489-1.04 1.878-.13.088-.27.156-.43.205 0 0 .02 1.089.03 1.089l11.38 5.333h-11.41l-.01 20.534 5.89 2.764h-5.89l-.01 38.391 1.07 1.051 1.23-1.197 1.23 1.197 1.23-1.197 1.23 1.197 1.23-1.197 1.22 1.197 1.23-1.197 1.23 1.197 1.23-1.197 1.23 1.197 1.22-1.197 1.23 1.197 1.23-1.197 1.23 1.197 1.23-1.197 1.23 1.197 1.18-1.158.01-28.455c-.62-.526-1-1.304-1-2.171 0-1.615 3-3.892 3-3.892s3 2.277 3 3.892c0 .867-.38 1.645-1 2.171v6.588h1v-2.92h2v2.92h1v-2.92h2v2.92h1v-2.92h2v2.92h1v-2.92h1v-1.722c-.62-.526-1-1.304-1-2.17 0-1.616 3-3.893 3-3.893s3 2.277 3 3.893c0 .866-.38 1.644-1 2.17v4.642h1v-2.92h2v2.92h1v-2.92h2v2.92h1v-2.92h2v2.92h1v-2.92h2v2.92h1v-2.92h2v2.92h1v-2.92h2v-5.683c-.61-.525-1-1.275-1-2.102 0-1.615 3.25-3.893 3.25-3.893s3.25 2.278 3.25 3.893c0 .574-.18 1.109-.5 1.557v2.676l1.67-.759.01-17.731h-10.17l10.14-4.603c.03-.185.03-.934.03-.934-.14-.049-.26-.097-.38-.175-.56-.331-.93-.934-.93-1.625 0-.584.26-1.11.69-1.45.43-4.905 4.65-8.768 9.8-8.768.07 0 .14 0 .21.009l.33-3.026.61-5.674.88 8.136.06.564c.07-.009.13-.009.2-.009h.01c3.9 0 7.26 2.209 8.85 5.42.52 1.022.85 2.151.95 3.348.43.34.69.866.69 1.45 0 .691-.37 1.294-.93 1.625-.12.078-.24.126-.38.175 0 0 .02.934.03.934l10.14 4.603h-10.17l-.01 17.731 5.25 2.384h-5.25v4.847h1.67v-2.92h2v2.92h1v-2.92h2v2.92h1v-2.92h2v-4.71c-.61-.525-1-1.275-1-2.102 0-1.615 3.25-3.892 3.25-3.892s3.25 2.277 3.25 3.892c0 .574-.18 1.11-.5 1.557v5.255h1v2.92h1v-2.92h2v2.92h1v-2.92h2v2.92h1v-2.92h1v-3.737c-.61-.525-1-1.274-1-2.102 0-1.615 3.25-3.892 3.25-3.892s3.25 2.277 3.25 3.892c0 .575-.18 1.11-.5 1.557v6.229h1v-2.92h3l4-12.651h-10s3.26-1.586 6.97-2.413c1.33-.302 2.71-.506 4.03-.506l.42-1.947h.12c-.04-.019-.08-.039-.11-.058-.01 0-.01-.01-.02-.01l-.01.068c-.497-.019-.977-.182-1.378-.469-.401-.286-.706-.682-.874-1.138-.169-.455-.194-.95-.072-1.419.121-.47.384-.893.754-1.217.35-1.712 1.51-3.571 3.32-5.07 1.61-1.323 3.43-2.121 5.08-2.326l.22-2.822.55-6.948.98 6.228.56 3.542c1.65.195 3.48.993 5.09 2.326 1 .827 1.8 1.762 2.37 2.715v-7.999h-3l.01-36.98s1-2.919 4-1.946v-2.92l-1-1.946 3.23-4.72c.01.01.03.02.04.03-.012-.012-.022-.025-.03-.039l-.01.009c-5.48-3.97-8.63-11.775-7.5-20.251.4-3.046 1.32-5.878 2.63-8.369.64-2.53 1.52-5.07 2.65-7.571 2.91-6.501 7.41-12.7973 13.42-18.2469.89-.8078 1.79-1.5863 2.71-2.3161v-.0098c1.62-1.8976 3.37-3.7174 5.29-5.4594 3.18-2.8902 6.58-5.3621 10.09-7.3959 5.06-2.9584 10.37-5.0118 15.63-6.1309-.13.9342-.13 1.6446-.13 1.6446l.13-1.6446c.24-1.7225.92-4.1943 2.87-4.1943v-2.9195c0 .9732 2 .9732 2 .9732v-6.8121l-2-2.9195-2 .9732v-5.8389l5-1.9463-1-1.9463s6.94-2.0242 11-2.1313v-1.8587c-1.13-.2233-2.146-.8201-2.876-1.6891-.73-.8691-1.129-1.9569-1.129-3.0793s.399-2.2103 1.129-3.0794c.73-.869 1.746-1.4657 2.876-1.6891v-1.2456c-1.17-.3893-2-1.4695-2-2.7443 0-1.2749.83-2.3551 2-2.7443v-6.345c-2.99-1.6835-5-4.8268-5-8.4275 0-2.62752 1.07-5.01176 2.82-6.763437-.543 1.212387-.823 2.521267-.82 3.843967 0 5.37177 4.48 9.73157 10 9.73157 1.341.002 2.668-.2599 3.902-.77s2.349-1.2578 3.278-2.1982c-.941 2.1345-2.636 3.8704-4.779 4.8934-2.142 1.0229-4.591 1.2651-6.901.6828v5.5665c.9.506 1.5 1.45 1.5 2.5302s-.6 2.0241-1.5 2.5302v1.5765c1.016.3125 1.903.9318 2.533 1.7683.63.8364.969 1.8464.969 2.8834 0 1.0369-.339 2.0469-.969 2.8833-.63.8365-1.517 1.4559-2.533 1.7683v1.9658c3.95-.0681 11.5 2.141 11.5 2.141l-1 1.9463 5 1.9463v5.8389l-2-.9732-2 2.9195v6.8121s2 0 2-.9732v2.9195c2.26 0 2.82 3.3282 2.95 4.9533 3.4 1.0413 6.78 2.3745 10.07 4.0776z" fill="#ad6c62"/><path d="m85.33 259.635 3.5-2.92 3.5 2.92v6.812h-7zm264.54-109.402s-6 3.892-8 4.866c-2 .973-5.11 3.114-5.56 7.396-.45 4.281-.45 23.745-.45 23.745l24 .009.01-21.409s0-3.893 2-5.839c0 0-5.5-4.379-7.5-5.352-2-.983-4.5-3.416-4.5-3.416zm-35.81 4.982c-.26.146-.5.263-.69.36-2 .974-5.11 3.124-5.55 7.396-.39 3.708-.45 18.782-.46 22.772h-15s.01-19.463.46-23.745c.44-4.272 3.55-6.423 5.55-7.396s8-4.865 8-4.865 2.5 2.432 4.5 3.406c.74.36 1.95 1.187 3.19 2.072z" fill="#f3967a" stroke="#ad6c62" stroke-miterlimit="10"/><path d="m.369995-251.242h375.000005v786.795h-375.000005z" fill="url(#a)"/><path d="m104.27 294.182-81.1199-.029c-11.73 0-21.33004 9.332-21.34004 20.747l.04-127.872c.63-.633 1.36-1.314 2.15-2.005 5.18-4.593 13.00004-10.199 16.50004-12.651-.27-.72-.41-1.508-.41-2.326 0-1.751.66-3.357 1.77-4.583.04-.039.07-.078.12-.127.05-.048.09-.097.15-.146.2-.194.45-.418.73-.642 1.24-1.041 3.08-2.336 4.13-3.056.01-.457.03-1.099.05-1.888-.85-.331-1.44-1.051-1.44-1.878 0-.866.63-1.615 1.54-1.927.01-.477.02-.973.04-1.479-.61-.272-1.03-.808-1.03-1.421 0-.642.45-1.197 1.11-1.45.21-6.841.52-14.558.81-15.434.3.876.6 8.593.82 15.434.66.253 1.11.808 1.11 1.45 0 .613-.42 1.149-1.03 1.421.02.506.03 1.002.04 1.479.91.312 1.54 1.061 1.54 1.927 0 .827-.59 1.547-1.44 1.878.02.779.04 1.421.05 1.888 1.05.72 2.89 2.015 4.13 3.056.07.058.14.107.2.165.14.117.26.224.37.322.17.155.32.301.43.428 1.1415 1.268 1.7705 2.897 1.77 4.583 0 .701-.1 1.372-.31 2.015 3.22 2.248 11.54 8.174 16.95 12.982 1.15 1.012 2.17 1.985 2.98 2.851.29.341.58.681.84 1.041-1.23-7.6-2.16-15.687-2.16-15.687l.13-.02c-.09-1.041-.13-2.082-.13-3.143 0-5.751 1.28-11.211 3.59-16.125 1.52-3.231 3.47-6.218 5.8-8.904 1.47-1.587 3.32-3.338 5.4-5.177 9.41-8.34 23.63-18.52 29.97-22.986-.4923-1.354-.7425-2.779-.74-4.214 0-3.182 1.21-6.102 3.2099-8.321.07-.077.14-.155.23-.243.08-.078.16-.165.26-.253.37-.36.82-.759 1.33-1.177 2.25-1.879 5.6-4.2337 7.5-5.5474.02-.8272.05-1.995.09-3.4255-1.55-.6034-2.62-1.9074-2.62-3.4158 0-1.5668 1.15-2.9195 2.8-3.4839.02-.8661.04-1.7711.07-2.6956-1.11-.4866-1.87-1.4598-1.87-2.5789 0-1.1678.83-2.1799 2.02-2.6372.39-12.4175.95-26.4309 1.49-28.0172.54 1.5863 1.08 15.5997 1.47 28.0172 1.19.4573 2.02 1.4694 2.02 2.6372 0 1.1191-.76 2.0923-1.87 2.5789.03.9245.05 1.8295.07 2.6956 1.65.5644 2.8 1.9171 2.8 3.4839 0 1.5084-1.07 2.8124-2.62 3.4158.04 1.4208.07 2.5885.09 3.4255 1.9 1.3137 5.25 3.6684 7.5 5.5474.13.107.25.204.37.311.24.204.47.399.67.584.31.282.57.545.78.778 2 2.219 3.21 5.139 3.21 8.321 0 1.265-.19 2.491-.56 3.649 5.85 4.087 20.94 14.85 30.77 23.57 2.08 1.839 3.93 3.591 5.4 5.177 2.33 2.686 4.28 5.674 5.8 8.905 2.3 4.914 3.58 10.373 3.57 16.125 0 6.15-1.47 11.979-4.1 17.156 1.68.876 2.98 1.197 3.85 1.314.24-1.353.66-2.657 1.23-3.873.63-1.343 1.44-2.589 2.41-3.698.61-.662 1.37-1.392 2.24-2.151 3.91-3.464 9.81-7.697 12.44-9.546-.206-.563-.31-1.155-.31-1.752 0-1.323.5-2.53 1.33-3.455.03-.029.06-.068.1-.097.03-.039.07-.078.11-.107.15-.156.34-.321.55-.496.93-.779 2.33-1.752 3.11-2.297.01-.35.03-.827.04-1.421-.64-.253-1.09-.798-1.09-1.421 0-.652.48-1.216 1.17-1.45 0-.36.01-.729.03-1.119-.47-.204-.78-.603-.78-1.07 0-.487.34-.905.84-1.09.16-5.158.39-10.977.61-11.639.23.662.46 6.481.62 11.639.49.185.84.603.84 1.09 0 .467-.32.866-.78 1.07l.03 1.119c.68.234 1.16.798 1.16 1.45 0 .623-.44 1.168-1.09 1.421.02.584.03 1.071.04 1.421.79.545 2.18 1.518 3.11 2.297.06.048.11.087.16.136.1.078.19.165.28.243.13.117.23.224.32.321.601.671 1.017 1.479 1.209 2.349.193.869.155 1.772-.109 2.624 2.43 1.693 8.7 6.16 12.78 9.78.87.759 1.63 1.489 2.24 2.151.28.311.54.642.79.983l5.11 13.906c-.07-.009 1.95 1.022 2 .973l-.03 97.316z" fill="#5c669d" opacity=".51"/><path d="m227.35 193.383.01-24.388c-.31.117-.65.175-1 .175-1.66 0-3-1.304-3-2.919 0-1.275.83-2.355 2-2.744v-11.97c-1.17-.263-2-.983-2-1.83 0-.846.83-1.566 2-1.829v-6.442c0-.224.01-.448.02-.672.18-2.433 1.33-4.613 3.08-6.16 1.91-2.452 5.95-7.026 8.9-6.306 0 0-.68-2.053 2.12-4.992l-.05-.078-1.07-1.742 2-1.946-1-.974.63-.603.87-7.668.81 7.6.69.671-1 .974 2 1.946-1.07 1.742-.05.078c2.81 2.939 2.19 4.992 2.19 4.992 3.05-.74 7.27 4.185 9.1 6.559 1.643 1.572 2.642 3.671 2.81 5.907.01.224.02.448.02.672v6.442c1.17.263 2 .983 2 1.829 0 .847-.83 1.567-2 1.83v11.97c1.17.389 2 1.469 2 2.744 0 1.615-1.34 2.919-3 2.919-.35 0-.69-.058-1-.175l-.01 44.941h10l-4 12.651h-3l-36.5 11.181 1.01-31.141zm95.02-47.539.64 6.812c-12.85 3.523-25.7 1.577-34.27-6.238v-.01l1.52-5.517 2.11-7.708-8.99-19.463.01-31.1408h-8l8-3.6299.01-27.0245h-15.5l15.46-7.0164c.04-.2822.04-1.4305.04-1.4305-.21-.0682-.4-.1558-.58-.2628-.434-.2618-.793-.6271-1.041-1.0614-.249-.4343-.379-.9231-.379-1.4202 0-.8953.41-1.6932 1.06-2.2187.65-7.4739 7.09-13.3517 14.94-13.3517.1 0 .21 0 .31.0097l1.44-13.2641 1.44 13.2641c.1-.0097.21-.0097.31-.0097 7.85 0 14.29 5.8778 14.94 13.3517.334.271.602.6104.785.994.183.3835.277.8018.275 1.2247 0 .4971-.131.9859-.379 1.4202-.249.4343-.607.7996-1.041 1.0614-.18.107-.37.1946-.58.2628 0 0 .03 1.4305.04 1.4305l15.46 7.0164h-15.5l-.01 27.0245 8 3.6299h-8l-.01 31.1408 3.31 14.179z" fill="#5c669d" opacity=".51"/><path d="m100.33 267.42c0 1.071-.9 1.946-2 1.946l-.01 24.816h-16.32l-.51-.068c-.7004-1.567-1.6117-3.037-2.71-4.37-.14-.165-.3-.331-.46-.506l.01-19.872c-1.1 0-2-.875-2-1.946 0-.72.4-1.343 1-1.683v-7.075l-2-1.947 2-1.946v-4.866c0-1.294.52-2.471 1.38-3.347l.18-.175c.04-.039.09-.078.14-.127.04-.039.08-.078.13-.117 1.13-1.041 4.18-3.727 7.13-5.41-.58-.351-.96-.906-.96-1.528 0-.964.9-1.771 2.09-1.917l.91-9.761.91 9.761c1.19.146 2.09.953 2.09 1.917 0 .622-.38 1.177-.96 1.528 2.95 1.683 6 4.369 7.13 5.41.05.039.09.078.13.117.05.049.1.088.14.127l.18.175c.86.876 1.38 2.053 1.38 3.347v4.866l2 1.946-2 1.947v7.075c.6.34 1 .963 1 1.683z" fill="#5786bc"/><path d="m82.03 294.143-59.85.039c-11.7299.01-21.319951 9.352-21.319951 20.767l-.06-90.805c.950001.681 1.920001 1.421 2.710001 2.073l.26.224c.17.146.34.292.48.418.90798.842 1.62992 1.855 2.12167 2.978.49176 1.123.74299 2.331.73833 3.552 0 .905-.13 1.781-.4 2.608 4.18995 2.929 15.02005 10.627 22.07005 16.884 1.49 1.314 2.82 2.569 3.87 3.708 1.6775 1.935 3.077 4.082 4.16 6.384 0 0 2.5899 12.31 1.7599 20.981 3.86-3.231 8.22-6.384 10.43-8.029-.23-.642-.3499-1.343-.3499-2.063 0-1.557.57-2.987 1.5-4.077.03-.039.0599-.078.1099-.117.0345-.047.0748-.089.1201-.126.17-.176.3799-.37.6199-.584 1.05-.915 2.6101-2.073 3.4901-2.715.01-.409.0299-.974.0399-1.684-.72-.292-1.2199-.934-1.2199-1.674 0-.759.5399-1.43 1.3099-1.703l.0301-1.323c-.52-.234-.8701-.711-.8701-1.265 0-.575.3901-1.071.9401-1.295.18-6.082.43-12.952.68-13.731.25.779.5199 7.649.6999 13.731.56.224.9401.72.9401 1.295 0 .554-.3501 1.031-.8701 1.265l.0301 1.323c.77.273 1.3099.944 1.3099 1.703 0 .74-.4999 1.382-1.2199 1.674.02.701.03 1.275.04 1.684.89.642 2.45 1.8 3.5 2.715.06.058.1099.107.1699.155.11.098.2201.195.3101.292.14.137.2699.263.3599.38.9775 1.145 1.5087 2.589 1.5 4.077 0 .623-.09 1.217-.26 1.791 2.73 2.005 9.76 7.26 14.36 11.542.76.7 1.46 1.391 2.05 2.024.16.175.32.34.46.506 1.09 1.323 2 2.783 2.71 4.369z" fill="#5786bc"/><path d="m191.91 143.372c61.856 0 112-48.7978 112-108.9931 0-60.1954-50.144-108.9933-112-108.9933s-112 48.7979-112 108.9933c0 60.1953 50.144 108.9931 112 108.9931z" fill="#fffcc2" opacity=".13"/><path d="m191.91 121.379c49.374 0 89.4-38.9514 89.4-87.0001 0-48.0488-40.026-87-89.4-87s-89.4 38.9512-89.4 87c0 48.0487 40.026 87.0001 89.4 87.0001z" fill="#fffcc2" opacity=".11"/><path d="m191.91 98.4416c36.898 0 66.81-29.1088 66.81-65.0164 0-35.90763-29.912-65.0165-66.81-65.0165s-66.81 29.10887-66.81 65.0165c0 35.9076 29.912 65.0164 66.81 65.0164z" fill="#fff" opacity=".15"/><path d="m191.91 75.8547c23.538 0 42.62-18.5694 42.62-41.4758 0-22.9065-19.082-41.47588-42.62-41.47588s-42.62 18.56938-42.62 41.47588c0 22.9064 19.082 41.4758 42.62 41.4758z" fill="#fff" opacity=".18"/><path d="m375.39 72.0886-.08 238.5004c-2.1-9.303-10.65-16.32-20.82-16.329l-251.22-.078 10.05-8.272-1-.973 4-2.92v-11.677l1 3.892h1l-.08-39.461.01-23.667h-5.89l5.89-2.764.01-20.534h-11.41l11.38-5.333c.03-.214.03-1.089.03-1.089-.16-.049-.3-.117-.43-.205-.62-.389-1.04-1.08-1.04-1.878 0-.681.3-1.294.78-1.693.47-5.674 5.21-10.141 10.99-10.141h.23l1.06-10.081 1.06 10.081h.23c5.78 0 10.52 4.467 10.99 10.141.48.399.78 1.012.78 1.693 0 .798-.42 1.489-1.04 1.878-.13.088-.27.156-.43.205 0 0 .02 1.089.03 1.089l11.38 5.333h-11.41l-.01 20.534 5.89 2.764h-5.89l-.01 38.391 1.07 1.051 1.23-1.197 1.23 1.197 1.23-1.197 1.23 1.197 1.23-1.197 1.22 1.197 1.23-1.197 1.23 1.197 1.23-1.197 1.23 1.197 1.22-1.197 1.23 1.197 1.23-1.197 1.23 1.197 1.23-1.197 1.23 1.197 1.18-1.158.01-28.455c-.62-.526-1-1.304-1-2.171 0-1.615 3-3.892 3-3.892s3 2.277 3 3.892c0 .867-.38 1.645-1 2.171v6.588h1v-2.92h2v2.92h1v-2.92h2v2.92h1v-2.92h2v2.92h1v-2.92h1v-1.722c-.62-.526-1-1.304-1-2.17 0-1.616 3-3.893 3-3.893s3 2.277 3 3.893c0 .866-.38 1.644-1 2.17v4.642h1v-2.92h2v2.92h1v-2.92h2v2.92h1v-2.92h2v2.92h1v-2.92h2v2.92h1v-2.92h2v2.92h1v-2.92h2v-5.683c-.61-.525-1-1.275-1-2.102 0-1.615 3.25-3.893 3.25-3.893s3.25 2.278 3.25 3.893c0 .574-.18 1.109-.5 1.557v2.676l1.67-.759.01-17.731h-10.17l10.14-4.603c.03-.185.03-.934.03-.934-.14-.049-.26-.097-.38-.175-.56-.331-.93-.934-.93-1.625 0-.584.26-1.11.69-1.45.43-4.905 4.65-8.768 9.8-8.768.07 0 .14 0 .21.009l.33-3.026.61-5.674.88 8.136.06.564c.07-.009.13-.009.2-.009h.01c3.9 0 7.26 2.209 8.85 5.42.52 1.022.85 2.151.95 3.348.43.34.69.866.69 1.45 0 .691-.37 1.294-.93 1.625-.12.078-.24.126-.38.175 0 0 .02.934.03.934l10.14 4.603h-10.17l-.01 17.731 5.25 2.384h-5.25v4.847h1.67v-2.92h2v2.92h1v-2.92h2v2.92h1v-2.92h2v-4.71c-.61-.525-1-1.275-1-2.102 0-1.615 3.25-3.892 3.25-3.892s3.25 2.277 3.25 3.892c0 .574-.18 1.11-.5 1.557v5.255h1v2.92h1v-2.92h2v2.92h1v-2.92h2v2.92h1v-2.92h1v-3.737c-.61-.525-1-1.274-1-2.102 0-1.615 3.25-3.892 3.25-3.892s3.25 2.277 3.25 3.892c0 .575-.18 1.11-.5 1.557v6.229h1v-2.92h3l4-12.651h-10s3.26-1.586 6.97-2.413c1.33-.302 2.71-.506 4.03-.506l.42-1.947h.12c-.04-.019-.08-.039-.11-.058-.01 0-.01-.01-.02-.01l-.01.068c-.497-.019-.977-.182-1.378-.469-.401-.286-.706-.682-.874-1.138-.169-.455-.194-.95-.072-1.419.121-.47.384-.893.754-1.217.35-1.712 1.51-3.571 3.32-5.07 1.61-1.323 3.43-2.121 5.08-2.326l.22-2.822.55-6.948.98 6.228.56 3.542c1.65.195 3.48.993 5.09 2.326 1 .827 1.8 1.762 2.37 2.715v-7.999h-3l.01-36.98s1-2.919 4-1.946v-2.92l-1-1.946 3.23-4.72c.01.01.03.02.04.03-.012-.012-.022-.025-.03-.039l-.01.009c-5.48-3.97-8.63-11.775-7.5-20.251.4-3.046 1.32-5.878 2.63-8.369.64-2.53 1.52-5.07 2.65-7.571 2.91-6.501 7.41-12.7973 13.42-18.2469.89-.8078 1.79-1.5863 2.71-2.3161v-.0098c1.62-1.8976 3.37-3.7174 5.29-5.4594 3.18-2.8902 6.58-5.3621 10.09-7.3959 5.06-2.9584 10.37-5.0118 15.63-6.1309-.13.9342-.13 1.6446-.13 1.6446l.13-1.6446c.24-1.7225.92-4.1943 2.87-4.1943v-2.9195c0 .9732 2 .9732 2 .9732v-6.8121l-2-2.9195-2 .9732v-5.8389l5-1.9463-1-1.9463s6.94-2.0242 11-2.1313v-1.8587c-1.13-.2233-2.146-.8201-2.876-1.6891-.73-.8691-1.129-1.9569-1.129-3.0793s.399-2.2103 1.129-3.0794c.73-.869 1.746-1.4657 2.876-1.6891v-1.2456c-1.17-.3893-2-1.4695-2-2.7443 0-1.2749.83-2.3551 2-2.7443v-6.345c-2.99-1.6835-5-4.8268-5-8.4275 0-2.62752 1.07-5.01176 2.82-6.763437-.543 1.212387-.823 2.521267-.82 3.843967 0 5.37177 4.48 9.73157 10 9.73157 1.341.002 2.668-.2599 3.902-.77s2.349-1.2578 3.278-2.1982c-.941 2.1345-2.636 3.8704-4.779 4.8934-2.142 1.0229-4.591 1.2651-6.901.6828v5.5665c.9.506 1.5 1.45 1.5 2.5302s-.6 2.0241-1.5 2.5302v1.5765c1.016.3125 1.903.9318 2.533 1.7683.63.8364.969 1.8464.969 2.8834 0 1.0369-.339 2.0469-.969 2.8833-.63.8365-1.517 1.4559-2.533 1.7683v1.9658c3.95-.0681 11.5 2.141 11.5 2.141l-1 1.9463 5 1.9463v5.8389l-2-.9732-2 2.9195v6.8121s2 0 2-.9732v2.9195c2.26 0 2.82 3.3282 2.95 4.9533 3.4 1.0413 6.78 2.3745 10.07 4.0776z" fill="#5786bc"/><path d="m85.33 259.635 3.5-2.92 3.5 2.92v6.812h-7zm264.54-109.402s-6 3.892-8 4.866c-2 .973-5.11 3.114-5.56 7.396-.45 4.281-.45 23.745-.45 23.745l24 .009.01-21.409s0-3.893 2-5.839c0 0-5.5-4.379-7.5-5.352-2-.983-4.5-3.416-4.5-3.416zm-35.81 4.982c-.26.146-.5.263-.69.36-2 .974-5.11 3.124-5.55 7.396-.39 3.708-.45 18.782-.46 22.772h-15s.01-19.463.46-23.745c.44-4.272 3.55-6.423 5.55-7.396s8-4.865 8-4.865 2.5 2.432 4.5 3.406c.74.36 1.95 1.187 3.19 2.072z" fill="#5c669d" opacity=".51"/><path d="m321.82 1.59329-9.66-17.02049.43-.2335 9.66 17.03015z" fill="url(#c)" opacity=".762129"/><path d="m352.37 4.44464-21.42-37.73894.96-.5158 21.42 37.73897z" fill="url(#d)" opacity=".634253"/><path d="m286.12 3.22818-14.36-25.29228.64-.3503 14.36 25.30197z" fill="url(#e)" opacity=".739772"/><path d="m45.91 11.2178-23.76-41.8651 1.06-.5742 23.77 41.8651z" fill="url(#f)" opacity=".511225"/><path d="m174.71 41.0936-28.42-50.04929.97-.52551 28.41 50.0591z" fill="url(#h)" opacity=".486785"/><path d="m262.54 70.9694-12.72-22.402.44-.2335 12.71 22.402z" fill="url(#i)" opacity=".762129"/><path d="m20.15 55.3503-5.31-9.352.18-.0973 5.31 9.352z" fill="url(#j)" opacity=".545382"/><path d="m187.47 36.9674-4.73-8.3399.16-.0876 4.74 8.34z" fill="url(#k)" opacity=".989826"/><path d="m363.58 74.103-15.38-27.1023.53-.2823 15.38 27.1024z" fill="url(#l)" opacity=".588289"/><path d="m161.25 64.7705-5.45-9.5954.19-.107 5.44 9.5953z" fill="url(#m)" opacity=".415251"/><path d="m219.23 25.7178-12.32-21.70138.42-.23355 12.32 21.71103z" fill="url(#n)" opacity=".387631"/><path d="m347.85 16.0154-16.84-29.652.58-.3114 16.83 29.6618z" fill="url(#o)" opacity=".370881"/><path d="m329.37 32.3255-5.7-10.0332.2-.1071 5.69 10.0333z" fill="url(#p)" opacity=".456706"/><path d="m203.08 4.03591-14.53-25.60371.49-.2725 14.54 25.61344z" fill="url(#q)" opacity=".932576"/><path d="m262.57 4.14295-33.23-58.55465 1.14-.6034 33.22 58.54496z" fill="url(#r)" opacity=".4761"/><path d="m58.32 64.2547-5.42-9.5564.18-.0973 5.42 9.5564z" fill="url(#s)" opacity=".661945"/><path d="m302.82 74.6674-28.19-49.6698.96-.5158 28.19 49.6699z" fill="url(#t)" opacity=".634253"/><path d="m137.93 50.2121-8.09-14.2567.28-.146 8.09 14.2567z" fill="url(#u)" opacity=".924482"/><path d="m237.9 8.3762-16.37-28.854.56-.292 16.37 28.84432z" fill="url(#v)" opacity=".938186"/><path d="m40.53 11.5584-20.12-35.4326.69-.3698 20.11 35.4326z" fill="url(#w)" opacity=".44823"/><path d="m293.6 39.7604-16.71-29.4477.57-.3017 16.71 29.438z" fill="url(#x)" opacity=".44609"/><path d="m167.23 2.72214-12.17-21.44834.41-.2238 12.18 21.4483z" fill="url(#y)" opacity=".453064"/><path d="m322.68 62.756-4.53-7.9799.16-.0875 4.53 7.9896z" fill="url(#z)" opacity=".411779"/><path d="m7.34 9.18385-5.34-9.40067.18-.107033 5.34 9.410413z" fill="url(#A)" opacity=".46813"/><path d="m215.59 73.1007-18.9-33.2917.65-.3503 18.89 33.2916z" fill="url(#B)" opacity=".739772"/><path d="m100.78 56.158-24.9-43.8795.85-.4574 24.9 43.8796z" fill="url(#C)" opacity=".445423"/><path d="m279.37 5.46646-9.7-17.09836.33-.1849 9.71 17.10807z" fill="url(#D)" opacity=".671744"/><path d="m374.18 52.7423-26.94-47.48023.92-.49629 26.94 47.48022z" fill="url(#E)" opacity=".613089"/><path d="m246.16 52.2362-18.76-33.0386.64-.3503 18.76 33.0483z" fill="url(#F)" opacity=".874225"/><path d="m256.07 18.2245-5.3-9.33256.18-.09732 5.3 9.33258z" fill="url(#G)" opacity=".501689"/><path d="m120.67.0849151-5.61-9.8872651.19-.09731 5.61 9.8775127z" fill="url(#H)" opacity=".539637"/><path d="m59.4601 45.1127-5.4-9.498.19-.0973 5.39 9.498z" fill="url(#I)" opacity=".577904"/><path d="m321.14 29.7466-30.66-54.0295 1.05-.5547 30.66 54.0198z" fill="url(#J)" opacity=".764051"/><path d="m99.8 33.5614-29.41-51.8205 1-.5352 29.41 51.8107z" fill="url(#K)" opacity=".377242"/><path d="m57.97 45.0252-30.52-53.7668 1.04-.56443 30.5199 53.77653z" fill="url(#L)" opacity=".460769"/><path d="m131.69 31.0214-12.61-22.22679.43-.22381 12.61 22.2171z" fill="url(#M)" opacity=".795129"/><path d="m105.09 63.6805-4.62-8.1453.16-.0876 4.62 8.1453z" fill="url(#N)" opacity=".591822"/><path d="m222.16 36.1694c-.01 15.59-13 28.2215-29.01 28.2118-12.2 0-22.64-7.3376-26.92-17.7211 5.096 3.8865 11.386 5.9943 17.86 5.9848 16.02.0098 29.01-12.6315 29.01-28.2117 0-3.7174-.73-7.2597-2.07-10.51 6.77 5.1771 11.13 13.2154 11.13 22.2462z" fill="#fff" opacity=".67"/><g fill="#5786bc"><path d="m-.130005 226.664h4.000005v80.772h-4.000005z"/><path d="m-.130005 229.584h1v-5.187l-1-2.598z"/></g></g></svg>