<svg fill="none" height="230" viewBox="0 0 375 230" width="375" xmlns="http://www.w3.org/2000/svg" xmlns:xlink="http://www.w3.org/1999/xlink"><linearGradient id="a" gradientUnits="userSpaceOnUse" x1="192.337" x2="183.881" y1="-253.652" y2="537.063"><stop offset="0" stop-color="#0071bc"/><stop offset=".285" stop-color="#33b0e4"/><stop offset=".569" stop-color="#a4e5f6"/></linearGradient><clipPath id="b"><path d="m0 0h375v230h-375z"/></clipPath><g clip-path="url(#b)"><path d="m103.32 293.758h-81.12c-11.73 0-21.330005 9.343-21.330005 20.758v-127.873c.630005-.632 1.360005-1.313 2.150005-2.004 5.18-4.594 13-10.199 16.5-12.661-.27-.72-.41-1.509-.41-2.326 0-1.752.66-3.357 1.77-4.584.04-.038.07-.077.12-.126s.09-.097.15-.146c.2-.195.45-.418.73-.642 1.24-1.042 3.08-2.336 4.13-3.056.01-.457.03-1.1.05-1.888-.85-.331-1.44-1.051-1.44-1.878 0-.866.63-1.616 1.54-1.927.01-.477.02-.973.04-1.479-.61-.273-1.03-.808-1.03-1.421 0-.642.45-1.197 1.11-1.45.21-6.841.52-14.558.81-15.434.3.876.6 8.593.82 15.434.66.253 1.11.808 1.11 1.45 0 .613-.42 1.148-1.03 1.421.02.506.03 1.002.04 1.479.91.311 1.54 1.061 1.54 1.927 0 .827-.59 1.547-1.44 1.878.02.779.04 1.421.05 1.888 1.05.72 2.89 2.014 4.13 3.056.07.058.14.107.2.165.14.117.26.224.37.321.17.156.32.302.43.428 1.1415 1.269 1.7705 2.898 1.77 4.584 0 .701-.1 1.372-.31 2.014 3.22 2.248 11.54 8.175 16.95 12.973 1.15 1.012 2.17 1.985 2.98 2.851.29.341.58.681.84 1.041-1.23-7.6-2.17-15.687-2.17-15.687l.13-.019c-.09-1.042-.13-2.083-.13-3.144 0-5.751 1.28-11.211 3.58-16.125 1.52-3.231 3.47-6.218 5.8-8.904 1.47-1.587 3.32-3.338 5.4-5.178 9.41-8.339 23.62-18.528 29.96-22.995-.4922-1.353-.7425-2.778-.74-4.214 0-3.182 1.21-6.102 3.21-8.32.07-.078.14-.156.23-.244.08-.078.16-.165.26-.253.37-.36.82-.759 1.33-1.177 2.25-1.878 5.6-4.2334 7.5-5.5472.02-.8272.05-1.9949.09-3.4255-1.55-.6033-2.62-1.9074-2.62-3.4158 0-1.5667 1.15-2.9194 2.8-3.4838.02-.8661.04-1.7712.07-2.6957-1.11-.4866-1.87-1.4597-1.87-2.5788 0-1.1678.83-2.1799 2.02-2.6373.39-12.4174.94-26.4309 1.48-28.0171.54 1.5862 1.09 15.5997 1.48 28.0171 1.19.4574 2.02 1.4695 2.02 2.6373 0 1.1191-.76 2.0922-1.87 2.5788.03.9245.05 1.8296.07 2.6957 1.65.5644 2.8 1.9171 2.8 3.4838 0 1.5084-1.07 2.8125-2.62 3.4158.04 1.4208.07 2.5886.09 3.4255 1.9 1.3138 5.25 3.6692 7.5 5.5472.13.107.25.204.37.311.24.205.47.399.67.584.31.282.57.545.78.779 2 2.218 3.21 5.138 3.21 8.32 0 1.265-.19 2.491-.56 3.649 5.85 4.088 20.94 14.841 30.78 23.56 2.08 1.84 3.93 3.591 5.4 5.178 2.33 2.686 4.28 5.673 5.8 8.904 2.3 4.914 3.58 10.374 3.58 16.125 0 6.151-1.47 11.98-4.09 17.157 1.68.876 2.98 1.197 3.85 1.314.24-1.353.66-2.657 1.23-3.873.63-1.343 1.44-2.589 2.41-3.698.61-.662 1.37-1.392 2.24-2.151 3.91-3.465 9.81-7.698 12.44-9.547-.206-.562-.31-1.155-.31-1.751 0-1.324.5-2.531 1.33-3.455.03-.029.06-.068.1-.097.03-.039.07-.078.11-.108.15-.155.34-.321.55-.496.93-.778 2.33-1.752 3.11-2.296.01-.351.03-.828.04-1.421-.64-.253-1.09-.798-1.09-1.421 0-.652.48-1.217 1.17-1.45 0-.36.01-.73.03-1.119-.47-.205-.78-.604-.78-1.071 0-.486.34-.905.84-1.09.16-5.157.39-10.977.61-11.639.23.662.46 6.482.62 11.639.49.185.84.604.84 1.09 0 .467-.32.866-.78 1.071l.03 1.119c.68.233 1.16.798 1.16 1.45 0 .623-.44 1.168-1.09 1.421.02.584.03 1.07.04 1.421.79.544 2.18 1.518 3.11 2.296.06.049.11.088.16.136.1.078.19.166.28.244.13.116.23.224.32.321.601.67 1.017 1.478 1.209 2.348s.155 1.773-.109 2.625c2.43 1.693 8.7 6.16 12.78 9.78.87.759 1.63 1.489 2.24 2.151.28.311.54.642.79.982l5.11 13.907c-.07-.01 1.95 1.022 2 .973zm124.05-103.757v-24.388c-.31.117-.65.176-1 .176-1.66 0-3-1.304-3-2.92 0-1.275.83-2.355 2-2.744v-11.97c-1.17-.263-2-.983-2-1.829 0-.847.83-1.567 2-1.83v-6.442c0-.224.01-.448.02-.672.18-2.433 1.33-4.613 3.08-6.16 1.91-2.452 5.95-7.026 8.9-6.306 0 0-.68-2.053 2.12-4.992l-.05-.078-1.07-1.742 2-1.946-1-.973.63-.604.87-7.668.81 7.6.69.672-1 .973 2 1.946-1.07 1.742-.05.078c2.81 2.939 2.19 4.992 2.19 4.992 3.05-.739 7.27 4.185 9.1 6.559 1.643 1.572 2.642 3.671 2.81 5.907.01.224.02.448.02.672v6.442c1.17.263 2 .983 2 1.83 0 .846-.83 1.566-2 1.829v11.97c1.17.389 2 1.469 2 2.744 0 1.616-1.34 2.92-3 2.92-.35 0-.69-.059-1-.176v44.941h10l-4 12.651h-3" fill="#f49886"/><path d="m227.37 192.92v-24.387c-.31.117-.65.175-1 .175-1.66 0-3-1.304-3-2.919 0-1.275.83-2.355 2-2.745v-11.969c-1.17-.263-2-.983-2-1.83s.83-1.567 2-1.83v-6.442c0-.224.01-.447.02-.671.18-2.433 1.33-4.613 3.08-6.16 1.91-2.453 5.95-7.027 8.9-6.306 0 0-.68-2.054 2.12-4.993l-.05-.078-1.07-1.742 2-1.946-1-.973.63-.603.87-7.669.81 7.601.69.671-1 .973 2 1.946-1.07 1.742-.05.078c2.81 2.939 2.19 4.993 2.19 4.993 3.05-.74 7.27 4.184 9.1 6.559 1.643 1.571 2.642 3.671 2.81 5.907.01.224.02.447.02.671v6.442c1.17.263 2 .983 2 1.83s-.83 1.567-2 1.83v11.969c1.17.39 2 1.47 2 2.745 0 1.615-1.34 2.919-3 2.919-.35 0-.69-.058-1-.175v44.94h10l-4 12.651h-3l-36.5 11.191 1-31.141zm95-47.568.64 6.812c-12.85 3.523-25.7 1.587-34.27-6.228v-.009l1.52-5.518 2.11-7.708-9-19.463v-31.1407h-8l8-3.6299v-27.0244h-15.5l15.46-7.0165c.04-.2822.04-1.4305.04-1.4305-.21-.0681-.4-.1557-.58-.2628-.434-.2618-.792-.6271-1.041-1.0614-.248-.4342-.379-.9231-.379-1.4201 0-.8953.41-1.6933 1.06-2.2188.65-7.4738 7.09-13.3517 14.94-13.3517.1 0 .21 0 .31.0097l1.44-13.2641 1.44 13.2641c.1-.0097.21-.0097.31-.0097 7.85 0 14.29 5.8779 14.94 13.3517.334.271.602.6104.785.994s.277.8018.275 1.2248c0 .497-.13.9859-.379 1.4201-.248.4343-.607.7996-1.041 1.0614-.18.1071-.37.1947-.58.2628 0 0 .03 1.4305.04 1.4305l15.46 7.0165h-15.5v27.0244l8 3.6299h-8v31.1407l3.31 14.179z" fill="#f49886"/><g fill="#fffcc2"><path d="m191.87 331.225c105.763 0 191.5-83.436 191.5-186.359 0-102.9235-85.737-186.3593-191.5-186.3593-105.7625 0-191.500005 83.4358-191.500005 186.3593 0 102.923 85.737505 186.359 191.500005 186.359z" opacity=".05"/><path d="m191.87 286.46c80.358 0 145.5-63.394 145.5-141.594 0-78.2004-65.142-141.59418-145.5-141.59418-80.357 0-145.4999 63.39378-145.4999 141.59418 0 78.2 65.1429 141.594 145.4999 141.594z" opacity=".11"/><path d="m191.87 243.641c56.057 0 101.5-44.223 101.5-98.775 0-54.5522-45.443-98.7754-101.5-98.7754s-101.4999 44.2232-101.4999 98.7754c0 54.552 45.4429 98.775 101.4999 98.775z" opacity=".31"/></g><path d="m100.37 266.997c0 1.07-.8999 1.946-1.9999 1.946v24.815h-16.32l-.51-.068c-.7003-1.567-1.6117-3.036-2.71-4.369-.14-.166-.3-.331-.46-.506v-19.872c-1.1 0-2-.876-2-1.946 0-.721.4-1.343 1-1.684v-7.075l-2-1.946 2-1.946v-4.866c0-1.294.52-2.472 1.38-3.348l.18-.175c.04-.039.09-.078.14-.126.04-.039.08-.078.13-.117 1.13-1.042 4.18-3.727 7.13-5.411-.58-.35-.96-.905-.96-1.528 0-.963.9-1.771 2.09-1.917l.91-9.761.91 9.761c1.19.146 2.09.954 2.09 1.917 0 .623-.38 1.178-.96 1.528 2.95 1.684 6 4.369 7.13 5.411.05.039.09.078.13.117.05.048.1.087.14.126l.18.175c.86.876 1.38 2.054 1.38 3.348v4.866l1.9999 1.946-1.9999 1.946v7.075c.6.341.9999.963.9999 1.684z" fill="#ad6c62"/><path d="m82.08 293.719-59.85.059c-11.73.01-21.320044 9.362-21.310044 20.777l-.09-90.805c.950004.681 1.920004 1.42 2.710004 2.072l.26.224c.17.146.34.292.48.419.23.204.41.399.56.564 1.48957 1.649 2.31078 3.77 2.31 5.966 0 .905-.13 1.78-.4 2.608 4.19004 2.929 15.02004 10.627 22.08004 16.874 1.49 1.314 2.82 2.569 3.87 3.708 1.67 1.927 3.07 4.068 4.17 6.384 0 0 2.59 12.31 1.77 20.981 3.86-3.231 8.21-6.384 10.43-8.029-.23-.642-.35-1.342-.35-2.063 0-1.557.57-2.987 1.5-4.077.03-.039.06-.078.11-.117.0344-.047.0747-.089.12-.126.17-.176.38-.37.62-.584 1.05-.915 2.61-2.073 3.49-2.715.01-.409.03-.974.04-1.684-.72-.292-1.22-.934-1.22-1.674 0-.759.54-1.43 1.31-1.703l.03-1.323c-.52-.234-.87-.711-.87-1.265 0-.575.39-1.071.94-1.295.17-6.082.43-12.952.68-13.731.25.779.52 7.649.7 13.731.56.224.94.72.94 1.295 0 .554-.35 1.031-.87 1.265l.03 1.323c.77.273 1.31.944 1.31 1.703 0 .74-.5 1.382-1.22 1.674.02.701.03 1.275.04 1.684.89.642 2.45 1.8 3.5 2.715.06.058.11.107.17.155.11.098.22.195.31.292.14.137.27.263.36.38.9774 1.145 1.5086 2.589 1.5 4.077 0 .623-.09 1.217-.26 1.791 2.73 2.005 9.77 7.26 14.36 11.542.76.7 1.46 1.391 2.05 2.024.16.175.32.34.46.506 1.09 1.323 2 2.783 2.71 4.369z" fill="#ad6c62"/><path d="m191.87 205.201c34.242 0 62-27.013 62-60.335 0-33.323-27.758-60.3358-62-60.3358s-62 27.0128-62 60.3358c0 33.322 27.758 60.335 62 60.335z" fill="#fffcc2" opacity=".63"/><path d="m375.37 71.5775v238.5005c-2.1-9.303-10.66-16.32-20.83-16.32h-251.22l10.05-8.271-1-.974 4-2.919v-11.678l1 3.893h1l-.09-39.462v-23.667h-5.89l5.89-2.764v-20.533h-11.41l11.38-5.333c.03-.214.03-1.09.03-1.09-.16-.049-.3-.117-.43-.204-.62-.39-1.04-1.08-1.04-1.878 0-.682.3-1.295.78-1.694.47-5.673 5.21-10.14 10.99-10.14h.23l1.06-10.082 1.06 10.082h.23c5.78 0 10.52 4.467 10.99 10.14.48.399.78 1.012.78 1.694 0 .798-.42 1.488-1.04 1.878-.13.087-.27.155-.43.204 0 0 .02 1.09.03 1.09l11.38 5.333h-11.41v20.533l5.89 2.764h-5.89v38.391l1.07 1.051 1.23-1.197 1.23 1.197 1.23-1.197 1.23 1.197 1.23-1.197 1.22 1.197 1.23-1.197 1.23 1.197 1.23-1.197 1.23 1.197 1.22-1.197 1.23 1.197 1.23-1.197 1.23 1.197 1.23-1.197 1.23 1.197 1.18-1.158v-28.455c-.62-.525-1-1.304-1-2.17 0-1.616 3-3.893 3-3.893s3 2.277 3 3.893c0 .866-.38 1.645-1 2.17v6.588h1v-2.919h2v2.919h1v-2.919h2v2.919h1v-2.919h2v2.919h1v-2.919h1v-1.723c-.62-.525-1-1.304-1-2.17 0-1.615 3-3.892 3-3.892s3 2.277 3 3.892c0 .866-.38 1.645-1 2.17v4.642h1v-2.919h2v2.919h1v-2.919h2v2.919h1v-2.919h2v2.919h1v-2.919h2v2.919h1v-2.919h2v2.919h1v-2.919h2v-5.683c-.61-.526-1-1.275-1-2.102 0-1.616 3.25-3.893 3.25-3.893s3.25 2.277 3.25 3.893c0 .574-.18 1.109-.5 1.557v2.676l1.67-.759v-17.731h-10.17l10.14-4.603c.03-.185.03-.934.03-.934-.14-.049-.26-.098-.38-.175-.56-.331-.93-.935-.93-1.626 0-.584.26-1.109.69-1.45.43-4.904 4.65-8.768 9.8-8.768.07 0 .14 0 .21.01l.33-3.027.61-5.673.88 8.136.06.564c.07-.01.13-.01.2-.01h.01c3.9 0 7.26 2.209 8.85 5.421.52 1.021.85 2.15.95 3.347.43.341.69.866.69 1.45 0 .691-.37 1.295-.93 1.626-.12.077-.24.126-.38.175 0 0 .02.934.03.934l10.14 4.603h-10.17v17.731l5.25 2.384h-5.25v4.846h1.67v-2.919h2v2.919h1v-2.919h2v2.919h1v-2.919h2v-4.71c-.61-.526-1-1.275-1-2.102 0-1.616 3.25-3.893 3.25-3.893s3.25 2.277 3.25 3.893c0 .574-.18 1.109-.5 1.557v5.255h1v2.919h1v-2.919h2v2.919h1v-2.919h2v2.919h1v-2.919h1v-3.737c-.61-.526-1-1.275-1-2.102 0-1.616 3.25-3.893 3.25-3.893s3.25 2.277 3.25 3.893c0 .574-.18 1.109-.5 1.557v6.228h1v-2.919h3l4-12.651h-10s3.26-1.587 6.97-2.414c1.33-.301 2.71-.506 4.03-.506l.42-1.946h.12c-.04-.02-.08-.039-.11-.058-.01 0-.01-.01-.02-.01l-.01.068c-.497-.02-.977-.183-1.378-.469-.401-.287-.706-.683-.874-1.138-.169-.456-.194-.95-.072-1.42.121-.469.384-.893.754-1.216.35-1.713 1.51-3.572 3.32-5.07 1.61-1.324 3.43-2.122 5.08-2.326l.22-2.822.55-6.948.98 6.228.56 3.542c1.65.195 3.48.993 5.09 2.326 1 .827 1.8 1.761 2.37 2.715v-7.999h-3v-36.98s1-2.92 4-1.947v-2.919l-1-1.946 3.23-4.72c.01.01.03.019.04.029-.012-.011-.022-.024-.03-.039l-.01.01c-5.48-3.971-8.63-11.775-7.51-20.251.4-3.046 1.32-5.878 2.63-8.37.64-2.53 1.52-5.07 2.65-7.571 2.91-6.5004 7.41-12.7967 13.41-18.2464.89-.8077 1.79-1.5862 2.71-2.3161v-.0097c1.62-1.8977 3.37-3.7175 5.29-5.4594 3.18-2.8903 6.58-5.3621 10.09-7.396 5.06-2.9584 10.37-5.0117 15.63-6.1309-.13.9343-.13 1.6447-.13 1.6447l.13-1.6447c.24-1.7225.92-4.1943 2.87-4.1943v-2.9194c0 .9731 2 .9731 2 .9731v-6.8121l-2-2.9194-2 .9731v-5.8389l5-1.9463-1-1.9463s6.94-2.0242 11-2.1312v-1.8587c-1.13-.2234-2.146-.8202-2.876-1.6892s-1.129-1.9569-1.129-3.0793.399-2.2103 1.129-3.0793 1.746-1.4658 2.876-1.6891v-1.2457c-1.17-.3892-2-1.4695-2-2.7443s.83-2.355 2-2.7443v-6.3449c-2.99-1.6836-5-4.8269-5-8.42756 0-2.62752 1.07-5.01176 2.82-6.763439-.543 1.212389-.823 2.521269-.82 3.843969 0 5.37181 4.48 9.73153 10 9.73153 1.341.002 2.668-.2599 3.902-.7699 1.234-.5101 2.349-1.2578 3.278-2.1982-.941 2.1345-2.636 3.8704-4.779 4.8933-2.142 1.0229-4.591 1.2652-6.901.6829v5.5664c.9.506 1.5 1.45 1.5 2.5302s-.6 2.0242-1.5 2.5302v1.5765c1.016.3125 1.903.9319 2.533 1.7683.63.8365.969 1.8465.969 2.8834 0 1.037-.339 2.0469-.969 2.8834-.63.8364-1.517 1.4558-2.533 1.7683v1.9657c3.95-.0681 11.5 2.141 11.5 2.141l-1 1.9463 5 1.9463v5.8389l-2-.9731-2 2.9194v6.8121s2 0 2-.9731v2.9194c2.26 0 2.82 3.3282 2.95 4.9534 3.38.9537 6.76 2.2869 10.05 3.9899z" fill="#ad6c62"/><path d="m85.3701 259.211 3.5-2.919 3.5 2.919v6.812h-7zm264.4999-109.479s-6 3.892-8 4.865-5.11 3.124-5.55 7.396c-.45 4.282-.45 23.745-.45 23.745h24v-21.409s0-3.893 2-5.839c0 0-5.5-4.379-7.5-5.352-2-.974-4.5-3.406-4.5-3.406zm-35.81 4.992c-.26.146-.5.263-.69.36-2 .973-5.11 3.124-5.55 7.396-.39 3.708-.44 18.782-.45 22.772h-15s0-19.463.45-23.745c.44-4.272 3.55-6.423 5.55-7.396s8-4.866 8-4.866 2.5 2.433 4.5 3.406c.74.36 1.95 1.187 3.19 2.073z" fill="#f3967a" stroke="#ad6c62" stroke-miterlimit="10"/><path d="m.369995-251.695h375.000005v786.796h-375.000005z" fill="url(#a)"/><path d="m103.32 293.758h-81.12c-11.73 0-21.330005 9.343-21.330005 20.758v-127.873c.630005-.632 1.360005-1.313 2.150005-2.004 5.18-4.594 13-10.199 16.5-12.661-.27-.72-.41-1.509-.41-2.326 0-1.752.66-3.357 1.77-4.584.04-.038.07-.077.12-.126s.09-.097.15-.146c.2-.195.45-.418.73-.642 1.24-1.042 3.08-2.336 4.13-3.056.01-.457.03-1.1.05-1.888-.85-.331-1.44-1.051-1.44-1.878 0-.866.63-1.616 1.54-1.927.01-.477.02-.973.04-1.479-.61-.273-1.03-.808-1.03-1.421 0-.642.45-1.197 1.11-1.45.21-6.841.52-14.558.81-15.434.3.876.6 8.593.82 15.434.66.253 1.11.808 1.11 1.45 0 .613-.42 1.148-1.03 1.421.02.506.03 1.002.04 1.479.91.311 1.54 1.061 1.54 1.927 0 .827-.59 1.547-1.44 1.878.02.779.04 1.421.05 1.888 1.05.72 2.89 2.014 4.13 3.056.07.058.14.107.2.165.14.117.26.224.37.321.17.156.32.302.43.428 1.1415 1.269 1.7705 2.898 1.77 4.584 0 .701-.1 1.372-.31 2.014 3.22 2.248 11.54 8.175 16.95 12.973 1.15 1.012 2.17 1.985 2.98 2.851.29.341.58.681.84 1.041-1.23-7.6-2.17-15.687-2.17-15.687l.13-.019c-.09-1.042-.13-2.083-.13-3.144 0-5.751 1.28-11.211 3.58-16.125 1.52-3.231 3.47-6.218 5.8-8.904 1.47-1.587 3.32-3.338 5.4-5.178 9.41-8.339 23.62-18.528 29.96-22.995-.4922-1.353-.7425-2.778-.74-4.214 0-3.182 1.21-6.102 3.21-8.32.07-.078.14-.156.23-.244.08-.078.16-.165.26-.253.37-.36.82-.759 1.33-1.177 2.25-1.878 5.6-4.2334 7.5-5.5472.02-.8272.05-1.9949.09-3.4255-1.55-.6033-2.62-1.9074-2.62-3.4158 0-1.5667 1.15-2.9194 2.8-3.4838.02-.8661.04-1.7712.07-2.6957-1.11-.4866-1.87-1.4597-1.87-2.5788 0-1.1678.83-2.1799 2.02-2.6373.39-12.4174.94-26.4309 1.48-28.0171.54 1.5862 1.09 15.5997 1.48 28.0171 1.19.4574 2.02 1.4695 2.02 2.6373 0 1.1191-.76 2.0922-1.87 2.5788.03.9245.05 1.8296.07 2.6957 1.65.5644 2.8 1.9171 2.8 3.4838 0 1.5084-1.07 2.8125-2.62 3.4158.04 1.4208.07 2.5886.09 3.4255 1.9 1.3138 5.25 3.6692 7.5 5.5472.13.107.25.204.37.311.24.205.47.399.67.584.31.282.57.545.78.779 2 2.218 3.21 5.138 3.21 8.32 0 1.265-.19 2.491-.56 3.649 5.85 4.088 20.94 14.841 30.78 23.56 2.08 1.84 3.93 3.591 5.4 5.178 2.33 2.686 4.28 5.673 5.8 8.904 2.3 4.914 3.58 10.374 3.58 16.125 0 6.151-1.47 11.98-4.09 17.157 1.68.876 2.98 1.197 3.85 1.314.24-1.353.66-2.657 1.23-3.873.63-1.343 1.44-2.589 2.41-3.698.61-.662 1.37-1.392 2.24-2.151 3.91-3.465 9.81-7.698 12.44-9.547-.206-.562-.31-1.155-.31-1.751 0-1.324.5-2.531 1.33-3.455.03-.029.06-.068.1-.097.03-.039.07-.078.11-.108.15-.155.34-.321.55-.496.93-.778 2.33-1.752 3.11-2.296.01-.351.03-.828.04-1.421-.64-.253-1.09-.798-1.09-1.421 0-.652.48-1.217 1.17-1.45 0-.36.01-.73.03-1.119-.47-.205-.78-.604-.78-1.071 0-.486.34-.905.84-1.09.16-5.157.39-10.977.61-11.639.23.662.46 6.482.62 11.639.49.185.84.604.84 1.09 0 .467-.32.866-.78 1.071l.03 1.119c.68.233 1.16.798 1.16 1.45 0 .623-.44 1.168-1.09 1.421.02.584.03 1.07.04 1.421.79.544 2.18 1.518 3.11 2.296.06.049.11.088.16.136.1.078.19.166.28.244.13.116.23.224.32.321.601.67 1.017 1.478 1.209 2.348s.155 1.773-.109 2.625c2.43 1.693 8.7 6.16 12.78 9.78.87.759 1.63 1.489 2.24 2.151.28.311.54.642.79.982l5.11 13.907c-.07-.01 1.95 1.022 2 .973v97.315z" fill="#589bad" opacity=".65"/><path d="m227.37 192.92v-24.387c-.31.117-.65.175-1 .175-1.66 0-3-1.304-3-2.919 0-1.275.83-2.355 2-2.745v-11.969c-1.17-.263-2-.983-2-1.83s.83-1.567 2-1.83v-6.442c0-.224.01-.447.02-.671.18-2.433 1.33-4.613 3.08-6.16 1.91-2.453 5.95-7.027 8.9-6.306 0 0-.68-2.054 2.12-4.993l-.05-.078-1.07-1.742 2-1.946-1-.973.63-.603.87-7.669.81 7.601.69.671-1 .973 2 1.946-1.07 1.742-.05.078c2.81 2.939 2.19 4.993 2.19 4.993 3.05-.74 7.27 4.184 9.1 6.559 1.643 1.571 2.642 3.671 2.81 5.907.01.224.02.447.02.671v6.442c1.17.263 2 .983 2 1.83s-.83 1.567-2 1.83v11.969c1.17.39 2 1.47 2 2.745 0 1.615-1.34 2.919-3 2.919-.35 0-.69-.058-1-.175v44.94h10l-4 12.651h-3l-36.5 11.191 1-31.141zm95-47.568.64 6.812c-12.85 3.523-25.7 1.587-34.27-6.228v-.009l1.52-5.518 2.11-7.708-9-19.463v-31.1407h-8l8-3.6299v-27.0244h-15.5l15.46-7.0165c.04-.2822.04-1.4305.04-1.4305-.21-.0681-.4-.1557-.58-.2628-.434-.2618-.792-.6271-1.041-1.0614-.248-.4342-.379-.9231-.379-1.4201 0-.8953.41-1.6933 1.06-2.2188.65-7.4738 7.09-13.3517 14.94-13.3517.1 0 .21 0 .31.0097l1.44-13.2641 1.44 13.2641c.1-.0097.21-.0097.31-.0097 7.85 0 14.29 5.8779 14.94 13.3517.334.271.602.6104.785.994s.277.8018.275 1.2248c0 .497-.13.9859-.379 1.4201-.248.4343-.607.7996-1.041 1.0614-.18.1071-.37.1947-.58.2628 0 0 .03 1.4305.04 1.4305l15.46 7.0165h-15.5v27.0244l8 3.6299h-8v31.1407l3.31 14.179z" fill="#589bad" opacity=".65"/><path d="m223.87 144.866c62.961 0 114-49.6696 114-110.9398 0-61.2703-51.039-110.9396-114-110.9396-62.96 0-114 49.6693-114 110.9396 0 61.2702 51.04 110.9398 114 110.9398z" fill="#fffcc2" opacity=".13"/><path d="m223.87 122.483c50.258 0 91-39.6481 91-88.5568s-40.742-88.5571-91-88.5571-91 39.6484-91 88.5571 40.742 88.5568 91 88.5568z" fill="#fffcc2" opacity=".11"/><path d="m223.87 99.1275c37.555 0 68-29.6273 68-66.1745 0-36.54716-30.445-66.1745-68-66.1745s-68 29.62734-68 66.1745c0 36.5472 30.445 66.1745 68 66.1745z" fill="#eaeeb7" opacity=".48"/><path d="m100.37 266.997c0 1.07-.8999 1.946-1.9999 1.946v24.815h-16.32l-.51-.068c-.7003-1.567-1.6117-3.036-2.71-4.369-.14-.166-.3-.331-.46-.506v-19.872c-1.1 0-2-.876-2-1.946 0-.721.4-1.343 1-1.684v-7.075l-2-1.946 2-1.946v-4.866c0-1.294.52-2.472 1.38-3.348l.18-.175c.04-.039.09-.078.14-.126.04-.039.08-.078.13-.117 1.13-1.042 4.18-3.727 7.13-5.411-.58-.35-.96-.905-.96-1.528 0-.963.9-1.771 2.09-1.917l.91-9.761.91 9.761c1.19.146 2.09.954 2.09 1.917 0 .623-.38 1.178-.96 1.528 2.95 1.684 6 4.369 7.13 5.411.05.039.09.078.13.117.05.048.1.087.14.126l.18.175c.86.876 1.38 2.054 1.38 3.348v4.866l1.9999 1.946-1.9999 1.946v7.075c.6.341.9999.963.9999 1.684z" fill="#627188"/><path d="m82.08 293.719-59.85.059c-11.73.01-21.320044 9.362-21.310044 20.777l-.09-90.805c.950004.681 1.920004 1.42 2.710004 2.072l.26.224c.17.146.34.292.48.419.23.204.41.399.56.564 1.48957 1.649 2.31078 3.77 2.31 5.966 0 .905-.13 1.78-.4 2.608 4.19004 2.929 15.02004 10.627 22.08004 16.874 1.49 1.314 2.82 2.569 3.87 3.708 1.67 1.927 3.07 4.068 4.17 6.384 0 0 2.59 12.31 1.77 20.981 3.86-3.231 8.21-6.384 10.43-8.029-.23-.642-.35-1.342-.35-2.063 0-1.557.57-2.987 1.5-4.077.03-.039.06-.078.11-.117.0344-.047.0747-.089.12-.126.17-.176.38-.37.62-.584 1.05-.915 2.61-2.073 3.49-2.715.01-.409.03-.974.04-1.684-.72-.292-1.22-.934-1.22-1.674 0-.759.54-1.43 1.31-1.703l.03-1.323c-.52-.234-.87-.711-.87-1.265 0-.575.39-1.071.94-1.295.17-6.082.43-12.952.68-13.731.25.779.52 7.649.7 13.731.56.224.94.72.94 1.295 0 .554-.35 1.031-.87 1.265l.03 1.323c.77.273 1.31.944 1.31 1.703 0 .74-.5 1.382-1.22 1.674.02.701.03 1.275.04 1.684.89.642 2.45 1.8 3.5 2.715.06.058.11.107.17.155.11.098.22.195.31.292.14.137.27.263.36.38.9774 1.145 1.5086 2.589 1.5 4.077 0 .623-.09 1.217-.26 1.791 2.73 2.005 9.77 7.26 14.36 11.542.76.7 1.46 1.391 2.05 2.024.16.175.32.34.46.506 1.09 1.323 2 2.783 2.71 4.369z" fill="#627188"/><path d="m223.87 76.1416c23.958 0 43.38-18.9005 43.38-42.2154s-19.422-42.21545-43.38-42.21545-43.38 18.90055-43.38 42.21545 19.422 42.2154 43.38 42.2154z" fill="#fff59b" opacity=".69"/><path d="m375.37 71.5775v238.5005c-2.1-9.303-10.66-16.32-20.83-16.32h-251.22l10.05-8.271-1-.974 4-2.919v-11.678l1 3.893h1l-.09-39.462v-23.667h-5.89l5.89-2.764v-20.533h-11.41l11.38-5.333c.03-.214.03-1.09.03-1.09-.16-.049-.3-.117-.43-.204-.62-.39-1.04-1.08-1.04-1.878 0-.682.3-1.295.78-1.694.47-5.673 5.21-10.14 10.99-10.14h.23l1.06-10.082 1.06 10.082h.23c5.78 0 10.52 4.467 10.99 10.14.48.399.78 1.012.78 1.694 0 .798-.42 1.488-1.04 1.878-.13.087-.27.155-.43.204 0 0 .02 1.09.03 1.09l11.38 5.333h-11.41v20.533l5.89 2.764h-5.89v38.391l1.07 1.051 1.23-1.197 1.23 1.197 1.23-1.197 1.23 1.197 1.23-1.197 1.22 1.197 1.23-1.197 1.23 1.197 1.23-1.197 1.23 1.197 1.22-1.197 1.23 1.197 1.23-1.197 1.23 1.197 1.23-1.197 1.23 1.197 1.18-1.158v-28.455c-.62-.525-1-1.304-1-2.17 0-1.616 3-3.893 3-3.893s3 2.277 3 3.893c0 .866-.38 1.645-1 2.17v6.588h1v-2.919h2v2.919h1v-2.919h2v2.919h1v-2.919h2v2.919h1v-2.919h1v-1.723c-.62-.525-1-1.304-1-2.17 0-1.615 3-3.892 3-3.892s3 2.277 3 3.892c0 .866-.38 1.645-1 2.17v4.642h1v-2.919h2v2.919h1v-2.919h2v2.919h1v-2.919h2v2.919h1v-2.919h2v2.919h1v-2.919h2v2.919h1v-2.919h2v-5.683c-.61-.526-1-1.275-1-2.102 0-1.616 3.25-3.893 3.25-3.893s3.25 2.277 3.25 3.893c0 .574-.18 1.109-.5 1.557v2.676l1.67-.759v-17.731h-10.17l10.14-4.603c.03-.185.03-.934.03-.934-.14-.049-.26-.098-.38-.175-.56-.331-.93-.935-.93-1.626 0-.584.26-1.109.69-1.45.43-4.904 4.65-8.768 9.8-8.768.07 0 .14 0 .21.01l.33-3.027.61-5.673.88 8.136.06.564c.07-.01.13-.01.2-.01h.01c3.9 0 7.26 2.209 8.85 5.421.52 1.021.85 2.15.95 3.347.43.341.69.866.69 1.45 0 .691-.37 1.295-.93 1.626-.12.077-.24.126-.38.175 0 0 .02.934.03.934l10.14 4.603h-10.17v17.731l5.25 2.384h-5.25v4.846h1.67v-2.919h2v2.919h1v-2.919h2v2.919h1v-2.919h2v-4.71c-.61-.526-1-1.275-1-2.102 0-1.616 3.25-3.893 3.25-3.893s3.25 2.277 3.25 3.893c0 .574-.18 1.109-.5 1.557v5.255h1v2.919h1v-2.919h2v2.919h1v-2.919h2v2.919h1v-2.919h1v-3.737c-.61-.526-1-1.275-1-2.102 0-1.616 3.25-3.893 3.25-3.893s3.25 2.277 3.25 3.893c0 .574-.18 1.109-.5 1.557v6.228h1v-2.919h3l4-12.651h-10s3.26-1.587 6.97-2.414c1.33-.301 2.71-.506 4.03-.506l.42-1.946h.12c-.04-.02-.08-.039-.11-.058-.01 0-.01-.01-.02-.01l-.01.068c-.497-.02-.977-.183-1.378-.469-.401-.287-.706-.683-.874-1.138-.169-.456-.194-.95-.072-1.42.121-.469.384-.893.754-1.216.35-1.713 1.51-3.572 3.32-5.07 1.61-1.324 3.43-2.122 5.08-2.326l.22-2.822.55-6.948.98 6.228.56 3.542c1.65.195 3.48.993 5.09 2.326 1 .827 1.8 1.761 2.37 2.715v-7.999h-3v-36.98s1-2.92 4-1.947v-2.919l-1-1.946 3.23-4.72c.01.01.03.019.04.029-.012-.011-.022-.024-.03-.039l-.01.01c-5.48-3.971-8.63-11.775-7.51-20.251.4-3.046 1.32-5.878 2.63-8.37.64-2.53 1.52-5.07 2.65-7.571 2.91-6.5004 7.41-12.7967 13.41-18.2464.89-.8077 1.79-1.5862 2.71-2.3161v-.0097c1.62-1.8977 3.37-3.7175 5.29-5.4594 3.18-2.8903 6.58-5.3621 10.09-7.396 5.06-2.9584 10.37-5.0117 15.63-6.1309-.13.9343-.13 1.6447-.13 1.6447l.13-1.6447c.24-1.7225.92-4.1943 2.87-4.1943v-2.9194c0 .9731 2 .9731 2 .9731v-6.8121l-2-2.9194-2 .9731v-5.8389l5-1.9463-1-1.9463s6.94-2.0242 11-2.1312v-1.8587c-1.13-.2234-2.146-.8202-2.876-1.6892s-1.129-1.9569-1.129-3.0793.399-2.2103 1.129-3.0793 1.746-1.4658 2.876-1.6891v-1.2457c-1.17-.3892-2-1.4695-2-2.7443s.83-2.355 2-2.7443v-6.3449c-2.99-1.6836-5-4.8269-5-8.42756 0-2.62752 1.07-5.01176 2.82-6.763439-.543 1.212389-.823 2.521269-.82 3.843969 0 5.37181 4.48 9.73153 10 9.73153 1.341.002 2.668-.2599 3.902-.7699 1.234-.5101 2.349-1.2578 3.278-2.1982-.941 2.1345-2.636 3.8704-4.779 4.8933-2.142 1.0229-4.591 1.2652-6.901.6829v5.5664c.9.506 1.5 1.45 1.5 2.5302s-.6 2.0242-1.5 2.5302v1.5765c1.016.3125 1.903.9319 2.533 1.7683.63.8365.969 1.8465.969 2.8834 0 1.037-.339 2.0469-.969 2.8834-.63.8364-1.517 1.4558-2.533 1.7683v1.9657c3.95-.0681 11.5 2.141 11.5 2.141l-1 1.9463 5 1.9463v5.8389l-2-.9731-2 2.9194v6.8121s2 0 2-.9731v2.9194c2.26 0 2.82 3.3282 2.95 4.9534 3.38.9537 6.76 2.2869 10.05 3.9899z" fill="#627188"/><path d="m85.3701 259.211 3.5-2.919 3.5 2.919v6.812h-7zm264.4999-109.479s-6 3.892-8 4.865-5.11 3.124-5.55 7.396c-.45 4.282-.45 23.745-.45 23.745h24v-21.409s0-3.893 2-5.839c0 0-5.5-4.379-7.5-5.352-2-.974-4.5-3.406-4.5-3.406zm-35.81 4.992c-.26.146-.5.263-.69.36-2 .973-5.11 3.124-5.55 7.396-.39 3.708-.44 18.782-.45 22.772h-15s0-19.463.45-23.745c.44-4.272 3.55-6.423 5.55-7.396s8-4.866 8-4.866 2.5 2.433 4.5 3.406c.74.36 1.95 1.187 3.19 2.073z" fill="#589bad" opacity=".65"/></g></svg>