<svg fill="none" height="115" viewBox="0 0 206 115" width="206" xmlns="http://www.w3.org/2000/svg" xmlns:xlink="http://www.w3.org/1999/xlink"><clipPath id="a"><path d="m0 0h206v114.62h-206z"/></clipPath><g clip-path="url(#a)"><path d="m33.33 5.39 69.67 23.81 69.7-23.81 33.3 48.47-103 35.26-103-35.26z" fill="#4e2999"/><path d="m193.85 51.88-85.45 32.71 29.38-29.11s48.22-11.66 56.07-3.6z" fill="#240f4f" opacity=".45"/><path d="m12.08 51.88 85.45 32.71-29.38-29.11c.07 0-48.15-11.66-56.07-3.6z" fill="#240f4f" opacity=".45"/><path d="m103 89.12 103-35.26v4.59l-103 35.26-103-35.26v-4.59z" fill="#994ef8"/><path d="m157.84 110.31-11.94-31.31-38.42 13.15z" fill="#3b1e77"/><path d="m154.52 101.27-47-9.12 38.38-13.15z" fill="#3b1e77" opacity=".45"/><path d="m103 90.53 54.88 19.78-4.1 4.31-50.78-18.08-50.74 18.08-4.17-4.31z" fill="#994ef8"/><path d="m48.09 110.31 12.01-31.31 38.42 13.15z" fill="#3b1e77"/><path d="m51.48 101.27 47-9.12-38.38-13.15z" fill="#3b1e77" opacity=".45"/><path d="m103 96.54c-.742 0-1.467-.2199-2.083-.632-.617-.412-1.0977-.9977-1.3815-1.6829-.2839-.6853-.3581-1.4392-.2134-2.1667.1447-.7274.5018-1.3956 1.0259-1.92.525-.5245 1.193-.8816 1.92-1.0263.728-.1447 1.482-.0705 2.167.2134.685.2838 1.271.7644 1.683 1.3811s.632 1.3417.632 2.0834c0 .9946-.395 1.9484-1.098 2.6517-.704.7032-1.657 1.0983-2.652 1.0983z" fill="#fff" fill-opacity=".5"/><path d="m36.3 5.39 66.7 33.21 66.63-33.21c3 4 27.47 44.79 27.47 44.79-.28 0-.49.07-.77.07-61.3 6.15-78.32 25.44-84 30.1s-9.47 4.24-9.47 4.24-3.81.5-9.46-4.24-22.67-23.95-84-30.1c-.28 0-.49-.07-.77-.07.2 0 24.7-40.7 27.67-44.79z" fill="#f5b304"/><path d="m8.83 50.18c.28 0 .49.07.77.07 61.3 6.15 78.32 25.44 84 30.1s9.4 4.24 9.4 4.24 3.82.5 9.47-4.24 22.67-23.95 84-30.1c.28 0 .49-.07.77-.07.147.1944.226.4314.226.675s-.079.4806-.226.675c-61.93 6-78.39 25.36-84 30.1s-10.09 4.31-10.09 4.31-4.45.35-10.1-4.31-22.15-24.03-84.05-30.1c-.17 0-.67-.53-.17-1.35z" fill="#994ef8"/><path d="m38.84 1.5c34.16-8.2 64.16 19.86 64.16 19.86s30.12-28.06 64.23-19.86c0 0 9.67 14.84 23 40.06 0 0-67.16 7.56-87.22 35.76-20.01-28.2-87.19-35.76-87.19-35.76 13.35-25.22 23.02-40.06 23.02-40.06z" fill="#f5effb"/><path d="m15.82 41.56s67.18 7.56 87.18 35.76c20-28.2 87.14-35.76 87.14-35.76s0 2.26 3.74 6.72c0 0-60.94 4.38-83.12 29.67-5.22 5.94-7.77 5.23-7.77 5.23s-2.61.71-7.76-5.23c-22.07-25.29-83.08-29.67-83.08-29.67 3.67-4.53 3.67-6.72 3.67-6.72z" fill="#dfcbf4"/><path d="m42.65 4.47s25.5-6.47 60.35 20.53c34.85-27 60.42-20.53 60.42-20.53l17.23 33.53c-52.4 3.6-77.61 30.1-77.61 30.1s-25.22-26.54-77.62-30.1zm60.35 60.41s23.55-24.16 73.55-28.88l-14.48-30.12s-25.07-4.88-59.07 20.7c-34.07-25.58-59.14-20.7-59.14-20.7l-14.48 30.12c50 4.72 73.62 28.88 73.62 28.88z" fill="#863ed5"/><g stroke="#863ed5" stroke-linecap="round" stroke-width="3"><path d="m96.54 50.25c-9.42-7-38.84-22.32-58.62-20.2" opacity=".2"/><path d="m96.54 30.75c-8.36-6.54-30.09-19.37-50.14-18.31" opacity=".2"/><path d="m96.54 40.65c-9.06-7.06-32.63-20.87-54.38-19.72" opacity=".2"/><path d="m108.54 50.25c9.42-7 38.84-22.32 58.62-20.2" opacity=".2"/><path d="m108.54 30.75c8.36-6.54 30.09-19.37 50.14-18.31" opacity=".2"/><path d="m108.54 40.65c9.07-7.06 32.63-20.87 54.38-19.72" opacity=".2"/></g><path d="m103 21.36s-.7-2.48-2-1.77c0 0 .84 40.06-.57 55.68-.35 3.88-3.74 9.18-5.08 11.16h1.65l.5 1.63s5.22-8.84 5.44-12.3c1.06-15.54.52-50.66.06-54.4z" fill="#54daf5"/></g></svg>