<svg fill="none" height="126" viewBox="0 0 206 126" width="206" xmlns="http://www.w3.org/2000/svg"><path d="m102.965 126c-49.1047 0-88.9116-9.269-88.9116-20.703 0-11.4336 39.8069-20.7026 88.9116-20.7026 49.104 0 88.911 9.269 88.911 20.7026 0 11.434-39.807 20.703-88.911 20.703z" fill="#042030" opacity=".25"/><path d="m33.3329 5.38681 69.6321 23.81169 69.702-23.81169 33.333 48.47139-103.035 35.2583-102.965-35.2583z" fill="#4e2999"/><path d="m193.853 51.8798-85.451 32.7146 29.379-29.1111s48.233-11.6585 56.072-3.6035z" fill="#240f4f" opacity=".45"/><path d="m12.0761 51.8798 85.4508 32.7146-29.3782-29.1111c.0707 0-48.1631-11.6585-56.0726-3.6035z" fill="#240f4f" opacity=".45"/><path d="m102.965 89.1165 103.035-35.2583v4.5928l-103.035 35.2583-102.965-35.2583v-4.5928z" fill="#994ef8"/><path d="m157.837 110.314-11.935-31.3016-38.418 13.1424z" fill="#3b1e77"/><path d="m154.518 101.27-47.034-9.1152 38.418-13.1424z" fill="#3b1e77" opacity=".45"/><path d="m102.965 90.5297 54.872 19.7843-4.096 4.31-50.776-18.0884-50.7058 18.0884-4.1667-4.31z" fill="#994ef8"/><path d="m48.0926 110.314 12.0055-31.3016 38.4175 13.1424z" fill="#3b1e77"/><path d="m51.4824 101.27 47.0332-9.1152-38.4175-13.1424z" fill="#3b1e77" opacity=".45"/><path d="m102.965 96.5356c-2.067 0-3.7431-1.6766-3.7431-3.7449 0-2.0682 1.6761-3.7448 3.7431-3.7448s3.743 1.6766 3.743 3.7448c0 2.0683-1.676 3.7449-3.743 3.7449z" fill="#fff" fill-opacity=".5"/><path d="m36.2989 5.38681 66.6661 33.20929 66.665-33.20929c3.037 4.02751 27.472 44.79719 27.472 44.79719-.283 0-.495.0706-.777.0706-61.299 6.1473-78.318 25.4369-83.968 30.1003-5.649 4.7341-9.463 4.2395-9.463 4.2395s-3.8134.4946-9.4631-4.2395c-5.6496-4.6634-22.6692-23.953-83.96778-30.1003-.28247 0-.49434-.0706-.77683-.0706.14126 0 24.64661-40.69903 27.61261-44.79719z" fill="#f5b304"/><path d="m8.82755 50.184c.28248 0 .49435.0706.77682.0706 61.29863 6.1473 78.31813 25.4369 83.96783 30.1003 5.6496 4.7341 9.4628 4.2395 9.4628 4.2395s3.814.4946 9.463-4.2395c5.65-4.6634 22.67-23.953 83.968-30.1003.283 0 .495-.0706.777-.0706.494.7772 0 1.3425 0 1.3425-61.934 6.0059-78.389 25.3662-84.038 30.1003-5.65 4.6634-10.099 4.3101-10.099 4.3101s-4.4492.3533-10.0988-4.3101-22.1042-24.0237-84.03842-30.1003c-.14125 0-.63557-.5653-.14123-1.3425z" fill="#994ef8"/><path d="m38.8412 1.50062c34.1097-8.19633 64.1938 19.85488 64.1938 19.85488s30.085-28.05121 64.194-19.85488c0 0 9.675 14.83818 23.023 40.06308 0 0-67.161 7.5604-87.217 35.7529-20.056-28.1925-87.2161-35.7529-87.2161-35.7529 13.3473-25.2249 23.0223-40.06308 23.0223-40.06308z" fill="#f5effb"/><path d="m15.819 41.5637s67.1601 7.5604 87.216 35.7529c19.986-28.1925 87.146-35.7529 87.146-35.7529s0 2.261 3.743 6.7125c0 0-60.946 4.3808-83.12 29.6764-5.226 5.9352-7.769 5.2287-7.769 5.2287s-2.613.7065-7.7679-5.2287c-22.1042-25.2956-83.1203-29.6764-83.1203-29.6764 3.6722-4.5221 3.6722-6.7125 3.6722-6.7125z" fill="#dfcbf4"/><path d="m42.6548 4.46825s25.494-6.50054 60.3802 20.56145c34.816-26.99133 60.381-20.56145 60.381-20.56145l17.231 33.49195c-52.4 3.6035-77.612 30.1003-77.612 30.1003s-25.2112-26.4968-77.6116-30.1003zm60.3102 60.41255s23.587-24.165 73.586-28.8991l-14.477-30.10029s-25.07-4.8754-59.109 20.70279c-34.0394-25.57819-59.1097-20.70279-59.1097-20.70279l-14.4772 30.10029c49.9993 4.7341 73.5869 28.8991 73.5869 28.8991z" fill="#863ed5"/><g stroke="#863ed5" stroke-linecap="round" stroke-width="3"><path d="m96.5382 50.2503c-9.4161-6.9481-38.8413-22.3236-58.615-20.2039" opacity=".2"/><path d="m96.5382 30.753c-8.3568-6.5467-30.0843-19.3738-50.1405-18.3086" opacity=".2"/><path d="m96.5382 40.6451c-9.063-7.0503-32.6267-20.8641-54.3778-19.7169" opacity=".2"/><path d="m108.544 50.2503c9.416-6.9481 38.841-22.3236 58.615-20.2039" opacity=".2"/><path d="m108.544 30.753c8.356-6.5467 30.084-19.3738 50.14-18.3086" opacity=".2"/><path d="m108.544 40.6451c9.063-7.0503 32.626-20.8641 54.377-19.7169" opacity=".2"/></g><path d="m102.965 21.3555s-.707-2.473-2.048-1.7664c0 0 .847 40.063-.565 55.6785-.3534 3.8862-3.7432 9.1855-5.085 11.1639h1.7656l.4943 1.6252s5.2261-8.8323 5.4381-12.2945c1.059-15.5448.494-50.6618 0-54.4067z" fill="#54daf5"/></svg>