<svg viewBox="0 0 53 53" xmlns="http://www.w3.org/2000/svg"><path d="m26.07 0h.86c.4.33.84.64 1.21 1 2 2 4 3.94 6 5.89a1.28 1.28 0 0 0 .82.33h9.08a1.54 1.54 0 0 1 1.7 1.78v9.07a1.29 1.29 0 0 0 .34.83c2 2 4 4 6 6.07a13.49 13.49 0 0 1 .9 1.1v.86c-.34.4-.64.84-1 1.21-2 2-3.94 4-5.89 6a1.26 1.26 0 0 0 -.34.82v9.08a1.53 1.53 0 0 1 -1.75 1.7c-3 0-6 0-9.07 0a1.26 1.26 0 0 0 -.82.34c-2 2-4.05 4-6.08 6-.34.33-.73.6-1.1.9h-.86c-.4-.33-.84-.64-1.21-1-2-2-4-3.94-6-5.89a1.29 1.29 0 0 0 -.83-.34c-3 0-5.94-.06-8.91 0a1.73 1.73 0 0 1 -1.93-1.91c0-3 0-6 0-8.92a1.33 1.33 0 0 0 -.33-.83c-2-2-4-4-6-6.07-.33-.34-.6-.73-.9-1.1v-.86c.33-.4.64-.84 1-1.21 2-2 3.94-4 5.89-6a1.33 1.33 0 0 0 .33-.83c0-3 0-5.94 0-8.92 0-1.36.54-1.9 1.91-1.9h8.91a1.33 1.33 0 0 0 .83-.33c2-2 4-4 6.07-6 .41-.3.8-.57 1.17-.87zm16.57 42.64v-.7c0-2.6 0-5.2 0-7.8a2.25 2.25 0 0 1 .7-1.71c1.83-1.81 3.66-3.65 5.47-5.43a2.74 2.74 0 0 1 .54-.31c-.28-.31-.4-.45-.54-.58-1.83-1.85-3.66-3.69-5.51-5.52a2.15 2.15 0 0 1 -.67-1.62c0-2.64 0-5.27 0-7.91v-.65h-.71c-2.6 0-5.2 0-7.8 0a2.28 2.28 0 0 1 -1.71-.71c-1.8-1.88-3.64-3.7-5.47-5.52l-.44-.41-.42.39c-1.81 1.84-3.64 3.61-5.44 5.44a2.37 2.37 0 0 1 -1.84.77c-2.6 0-5.2 0-7.8 0h-.64v.73 7.8a2.17 2.17 0 0 1 -.69 1.66c-1.83 1.82-3.67 3.67-5.5 5.51-.13.13-.25.28-.48.52a3.22 3.22 0 0 1 .51.41c1.8 1.8 3.67 3.65 5.52 5.48a2.07 2.07 0 0 1 .64 1.57v7.91.68h.69 7.85a2.18 2.18 0 0 1 1.66.7c1.83 1.84 3.68 3.67 5.52 5.5.13.14.28.26.52.48a2.92 2.92 0 0 1 .38-.52c1.81-1.82 3.63-3.62 5.44-5.44a2.2 2.2 0 0 1 1.7-.72h6z"/></svg>