<svg viewBox="0 0 60 50.47" xmlns="http://www.w3.org/2000/svg"><path d="m7 40.51v-9.22c0-.76 0-.76-.69-1l-5.79-2.21c-.61-.22-.62-.25-.36-.83l4.84-11.08 6.65-15.41c.21-.48.22-.49.71-.3l5.32 2.1c.54.21.6.18.83-.33s.55-1.23.82-1.84a.58.58 0 0 1 .67-.39c2.63.23 5.25.51 7.61 1.86.72.41 1.41.88 2.1 1.34a.45.45 0 0 0 .61 0 15.06 15.06 0 0 1 8.33-3.05c.44-.02.88-.09 1.35-.15a.63.63 0 0 1 .73.42c.25.62.53 1.23.81 1.84.19.44.29.49.74.32 1.8-.71 3.6-1.41 5.39-2.13.36-.15.54-.12.7.27q2.26 5.35 4.63 10.69l6.87 15.8c.26.61.26.64-.35.87l-5.91 2.22c-.69.26-.7.26-.7 1v18.46c0 .85 0 .85-.77.46l-10.9-5.4-10.72-5.29a1.13 1.13 0 0 0 -1.1 0q-5.24 2.63-10.49 5.21l-11.34 5.59c-.51.25-.57.21-.58-.35zm24.73-7.51v1c0 .94 0 .94.89.6l19.26-7.24c1-.4 2.1-.81 3.16-1.19.37-.13.46-.33.28-.67 0-.08-.07-.17-.11-.26l-6.06-14q-1.32-3-2.63-6.06c-.21-.48-.26-.5-.76-.3s-1.29.52-1.95.77-.69.3-.39 1l4.47 10.08c.94 2.14 1.89 4.27 2.84 6.41.28.64.27.67-.38.92l-6.81 2.54-11.34 4.28a.64.64 0 0 0 -.47.7c.01.42 0 .91 0 1.42zm-3.46 0v-1.24c0-.64 0-.68-.62-.91l-10.09-3.85-8.02-3c-.49-.18-.53-.28-.35-.7l4.09-9.3 3.38-7.62c.19-.45.17-.51-.29-.69l-2.13-.85c-.49-.2-.54-.18-.75.31-.6 1.37-1.19 2.73-1.78 4.1q-3.5 8.06-7 16.11c-.23.51-.2.55.32.76l.19.07 12.51 4.72 10 3.77c.4.15.49.09.5-.33s.04-.91.04-1.35zm16.56-14.6c-.07-.2-.1-.33-.15-.45l-6.13-13.86a.6.6 0 0 0 -.74-.42 12 12 0 0 0 -5.71 2.45.9.9 0 0 0 -.37.76v13.44c0 .46.08.51.5.34 1.27-.51 2.54-1 3.8-1.55a12.24 12.24 0 0 1 8.44-.79 1.79 1.79 0 0 0 .36.05zm-29.65.06.57-.12a30.1 30.1 0 0 1 3.11-.41 12.71 12.71 0 0 1 5.64 1.27c1.07.49 2.16.95 3.25 1.41.44.19.51.14.52-.35v-11.26c0-.71 0-1.42 0-2.13a1 1 0 0 0 -.27-.59 11 11 0 0 0 -5.92-2.61.51.51 0 0 0 -.61.37l-6.12 13.84c-.06.12-.09.29-.17.55zm10.39 19.11c-.25-.11-.41-.2-.59-.26l-13.9-5.24c-.52-.2-.61-.15-.61.42v11.93c0 .59.09.63.64.36l3.75-1.86 10.36-5.11c.09-.05.17-.12.35-.24zm8.86 0v.13c.13.07.25.15.38.21.54.26 1.09.51 1.63.78l12.11 6 .25.13c.58.25.65.21.65-.41v-11.87c0-.62-.07-.66-.66-.44l-13.18 5zm-19.53-15.25.5.22 3.5 1.33 8.84 3.36c.42.16.52.09.53-.37s0-1.18 0-1.77a.73.73 0 0 0 -.53-.79c-1.74-.76-3.55-1.57-5.35-2.3a9 9 0 0 0 -7 .07 3.15 3.15 0 0 0 -.49.25zm30.2 0c-.08-.09-.1-.13-.14-.15a1.92 1.92 0 0 0 -.25-.12 8.15 8.15 0 0 0 -6.39-.17c-2.08.79-4.13 1.66-6.2 2.49a.56.56 0 0 0 -.39.58v1.9c0 .48.1.53.56.36l12.42-4.71a3.12 3.12 0 0 0 .39-.18z"/></svg>