<svg viewBox="0 0 25 38.33" xmlns="http://www.w3.org/2000/svg"><path d="m22 38.33h-22v-1.71a.58.58 0 0 0 .05-.14 5.5 5.5 0 0 1 1.8-3.42 5.83 5.83 0 0 1 1.77-1.06c0-.07-.06-.11-.08-.15a8.74 8.74 0 0 1 -1.27-4.65c0-2.12 0-4.25 0-6.37a17.21 17.21 0 0 1 .17-2.27 16.22 16.22 0 0 1 4.1-8.62 1 1 0 0 0 .27-.73 39.39 39.39 0 0 1 .07-4.07 5.57 5.57 0 0 1 3.61-4.77 11.69 11.69 0 0 1 1.44-.37h1.14l.5.1a5.6 5.6 0 0 1 .82 10.81 1.05 1.05 0 0 0 -.67.63.25.25 0 0 0 .09.35 5.54 5.54 0 0 1 2.1 4.46v6.41a.38.38 0 0 0 .26.4c1.18.58 2.37 1.15 3.53 1.75a5.5 5.5 0 0 1 2.84 3.48 8.81 8.81 0 0 1 .18 2.61.39.39 0 0 0 .21.39 4.08 4.08 0 0 1 1.88 2.37c.07.25.13.5.19.74v.93a.61.61 0 0 0 -.05.12 3.22 3.22 0 0 1 -1.79 2.43 7.56 7.56 0 0 1 -1.16.35zm-10.64-10.92 4.36 1.44 1-2.89-2.86-1.41a.37.37 0 0 1 -.25-.39c0-2.58 0-5.16 0-7.74a3.36 3.36 0 0 0 -2-3.24l-3.21-1.6a.27.27 0 0 0 -.39.09 13.85 13.85 0 0 0 -3.48 9v6.71a6.28 6.28 0 0 0 1.61 4.14.86.86 0 0 0 .36.23 5.8 5.8 0 0 0 5.5-1.1c.16-.14.31-.3.49-.48l-.19-.07-3-1c-.19-.06-.27-.13-.27-.35q0-5.82 0-11.65v-.26h2.27zm-8.9 8.67h19.26a1.13 1.13 0 0 0 1-1.12 2 2 0 0 0 -1.41-1.89l-6.23-2.07a.31.31 0 0 0 -.42.13 8.13 8.13 0 0 1 -8.84 2.87 1.65 1.65 0 0 0 -.73-.06 3.39 3.39 0 0 0 -2.63 2.14zm9.15-25.42a.64.64 0 0 0 .06-.11 3.33 3.33 0 0 1 2-1.77 3.33 3.33 0 0 0 2.11-4.13 3.41 3.41 0 0 0 -4.12-2.3 3.56 3.56 0 0 0 -2.57 3.41v3.46a.35.35 0 0 0 .16.26c.75.4 1.56.78 2.36 1.18zm6.27 18.9 2.56.84a3.37 3.37 0 0 0 -1.66-3.4z"/></svg>